<svg width="1754" height="150" viewBox="0 0 1754 150" fill="none" xmlns="http://www.w3.org/2000/svg">
<path d="M0 0H1728V125C1728 138.807 1716.81 150 1703 150H25C11.1929 150 0 138.807 0 125V0Z" fill="black"/>
<g clip-path="url(#clip0_12_4071)">
<g clip-path="url(#clip1_12_4071)">
<g clip-path="url(#clip2_12_4071)">
<g clip-path="url(#clip3_12_4071)">
<path fill-rule="evenodd" clip-rule="evenodd" d="M236.781 47.8206V40.6619H224.034V47.8206L226.025 48.7567L224.224 55.812C226.24 55.4129 228.301 55.2307 230.368 55.3095C230.967 55.3341 231.491 55.4376 231.945 55.6199L233.847 48.7567L236.786 47.8206H236.781ZM222.811 61.3154L222.377 63.0201L221.973 61.611C218.639 62.8378 215.26 64.641 212.869 66.8581L214.651 73.4059H224.358L224.738 72.4649C225.876 69.6319 227.064 66.8039 228.122 63.9414C228.436 63.0841 229.14 61.207 229.394 59.8767C227.518 60.0048 225.197 60.5073 222.816 61.3154H222.811ZM220.595 56.7826C217.65 57.7828 214.855 59.2411 212.34 61.0444C212.045 61.2562 211.756 61.473 211.466 61.6947L210.723 58.9554L209.46 63.3797C208.526 64.237 207.653 65.1534 206.879 66.1191C205.946 67.2917 204.733 69.0949 204.673 70.637C204.633 71.6174 205.392 72.6619 206.131 73.4108H193.473L187.075 48.7567L184.185 47.8206V40.6619H200.106V47.8206L197.925 48.7567L201.813 63.025L205.746 48.7567L203.52 47.8206V40.6619H220.625V47.8206L218.304 48.7567L220.595 56.7875V56.7826ZM268.2 67.5577V46.3672L261.283 40.6619H247.208L240.29 46.3672V63.7886C240.4 63.7246 240.52 63.6753 240.639 63.6507C241.653 63.4487 242.556 64.4193 243.09 65.1435C243.604 65.8333 244.408 67.1044 243.619 67.8829C243.355 68.144 242.995 68.7549 242.621 69.4743L244.108 70.6912C244.922 69.8241 245.745 68.9717 246.574 68.1292C247.787 66.8975 249.025 65.6756 250.277 64.4833L250.043 64.2912V49.6978L251.32 48.7173H257.15L258.428 49.6978V63.2467C258.523 63.5719 258.543 63.8921 258.428 64.1828V64.2961L258.318 64.3848C258.278 64.439 258.233 64.4932 258.183 64.5474C257.964 64.8036 257.614 65.5869 257.47 65.9121C257.01 66.9123 256.586 67.942 256.182 68.9668C255.598 70.4399 255.039 71.9279 254.5 73.4207H255.743L255.827 73.2581C257.095 70.8636 259.631 67.1882 262.69 67.0847C264.188 67.0355 265.565 67.8188 266.474 68.9619C267.048 68.4987 267.617 68.0356 268.191 67.5725L268.2 67.5577ZM247.472 73.4059C248.421 72.3171 249.394 71.2332 250.377 70.169C249.948 71.243 249.529 72.322 249.114 73.4059H247.472ZM300.284 67.5577V46.3672L293.366 40.6619H279.291L272.373 46.3672V67.5577L273.676 68.6219C274.829 67.7597 276.296 67.0158 277.614 67.0158C278.767 67.0158 280.169 67.4001 280.983 68.2918C281.272 67.6168 281.542 67.001 281.781 66.4738C279.326 66.6462 275.273 67.001 274.494 67.4937C274.22 67.7449 273.845 67.8238 273.486 67.7006C273.117 67.5725 272.867 67.267 272.822 66.8827C272.663 65.5081 273.217 63.9118 274.2 62.9412C274.834 62.3155 277.11 62.3648 277.958 62.35C279.346 62.3254 280.738 62.3303 282.131 62.35V49.6879L283.408 48.7075H289.238L290.516 49.6879V60.4137C290.666 60.7044 290.656 61.0394 290.516 61.3104V62.5963C291.744 62.6456 292.971 62.6998 294.204 62.754C295.213 62.8033 296.231 62.8723 297.244 62.9067C297.444 62.9067 297.613 62.9609 297.778 63.0743L297.793 63.0841C298.392 63.3157 298.596 64.0596 298.537 64.6755C298.472 65.3455 298.147 65.9663 297.668 66.4442C297.329 66.7793 296.8 66.8285 296.41 66.5674C295.836 66.3506 293.785 66.2816 293.176 66.257C291.255 66.188 289.308 66.2028 287.381 66.257C286.184 68.5431 285.086 70.977 284.157 73.4158H286.967C288.809 70.0261 291.709 67.0749 295.452 67.0749C296.755 67.0749 297.953 67.5626 298.701 68.6465C298.731 68.686 298.756 68.7303 298.786 68.7746C299.285 68.3706 299.779 67.9716 300.279 67.5676L300.284 67.5577ZM277.559 71.7998C277.704 71.6914 277.853 71.5928 278.008 71.4943C278.597 71.1149 279.356 70.7355 280.084 70.4646C279.755 71.2874 279.421 72.1594 279.101 73.0561L277.564 71.7998H277.559ZM335.775 66.39V47.4462L327.485 40.6619H304.456V47.8206L308.06 48.7567V65.3652L304.456 66.3014V67.336C305.699 67.4099 306.947 68.1391 307.63 69.154C307.74 69.3166 307.795 69.4989 307.8 69.6812C308.619 68.9028 309.502 68.213 310.46 67.6267C310.665 67.4493 310.915 67.3064 311.164 67.2276C311.174 67.2276 311.184 67.2227 311.194 67.2178C311.334 67.1586 311.474 67.1241 311.638 67.1241C311.938 67.1241 312.212 67.2572 312.392 67.4641C312.831 67.5183 313.27 67.6365 313.655 67.7843C313.954 67.8977 314.269 68.0455 314.533 68.2278C315.132 68.6465 315.422 69.4102 314.838 69.9817C313.834 70.972 313.051 72.1397 312.502 73.4059H327.246L335.775 66.39ZM317.862 48.7075H323.976L325.968 50.353V63.6704L323.882 65.3603H317.862V48.7075Z" fill="url(#paint0_linear_12_4071)"/>
<path fill-rule="evenodd" clip-rule="evenodd" d="M255.298 61.3299C254.934 61.3299 240.315 74.731 237.35 80.998C238.339 75.9135 241.822 68.2621 242.915 67.1831C243.23 66.8727 241.613 64.4634 240.834 64.6162C240.47 64.6162 228.506 77.7611 224.343 85.6194C227.777 73.657 238.179 56.6051 230.328 56.2996C216.647 55.7872 205.826 66.8283 205.672 70.6762C205.622 72.0607 208.741 74.6325 208.791 73.657C208.791 73.5535 208.531 73.3466 208.531 73.2481C208.531 64.7246 223.565 58.768 230.482 58.8714C230.742 62.9263 220.65 81.8258 220.65 89.5807C220.65 90.8124 222.003 91.581 223.405 91.6352V91.4824C223.924 89.0683 232.404 77.1058 237.71 70.7353C236.048 74.5882 234.226 79.4116 234.226 82.4958C234.226 83.7817 235.059 84.7572 236.412 85.1169H236.462C236.672 85.1662 236.931 85.2204 237.191 85.2204H237.605C237.655 85.2204 237.71 85.0135 237.71 84.708C238.853 81.678 248.061 70.8437 253.212 65.8627C250.352 72.7455 245.356 85.4766 245.356 89.5363C245.356 91.177 246.759 91.9998 248.79 91.9998C247.073 90.3049 255.967 65.3503 257.48 63.8623C257.794 63.552 256.127 61.0885 255.348 61.2954L255.298 61.3447V61.3299ZM311.638 68.1586V68.1093C311.588 68.1093 311.534 68.1586 311.484 68.1586C311.329 68.2079 311.169 68.3113 311.069 68.4148C306.962 70.8782 303.997 75.6573 301.446 81.8159C301.601 80.7369 301.861 79.6579 302.175 78.5789C302.799 76.5244 303.682 74.5734 304.671 72.6716C304.825 72.4154 306.542 69.5923 306.802 69.6908C306.802 69.6908 305.864 68.3064 304.251 68.3064H304.097C303.887 68.4099 303.732 68.5626 303.578 68.7153C303.318 68.9715 303.108 69.2819 302.899 69.5874C302.639 69.9963 302.38 70.4102 302.12 70.8191C301.861 71.2822 301.601 71.7454 301.342 72.2578C301.082 72.8243 300.823 73.386 300.563 73.9526C300.303 74.5685 300.044 75.1843 299.784 75.8002C299.545 76.3717 299.3 76.9432 299.101 77.5147C297.518 79.7466 293.905 84.2104 290.211 84.4764C286.049 81.5991 291.409 71.228 295.881 71.228H296.351C295.312 73.588 291.719 78.4705 289.328 78.2636C289.328 78.2636 290.526 80.3181 292.348 79.4953C296.041 77.904 298.018 72.2528 298.332 71.228V71.0211C298.542 70.0948 297.918 68.0403 295.472 68.0403C290.421 68.0403 286.927 74.4157 285.974 78.9287C284.566 80.9241 282.59 83.3679 281.118 83.7571C280.129 80.0619 283.823 70.8191 286.787 65.2714C291.784 65.1187 296.41 65.2714 296.984 65.7346C297.763 64.966 297.608 63.9904 297.399 63.9904L297.244 63.887C297.139 63.887 292.612 63.6308 287.671 63.4781C288.504 62.0936 289.233 61.1181 289.647 60.857C289.647 60.857 288.869 59.4183 287.047 59.4183C286.633 59.4183 285.59 61.0097 284.342 63.3746C279.61 63.2711 275.293 63.2711 274.929 63.6308C273.626 64.9167 273.835 66.7643 273.835 66.7643C274.509 66.0942 278.727 65.636 283.408 65.3798C279.665 73.184 275.138 86.0727 279.505 86.8955C281.327 87.2552 283.977 83.7127 285.175 82.0672C285.365 81.811 285.545 81.5597 285.719 81.3134C285.744 84.2301 287.117 86.792 290.171 86.792C292.872 86.792 295.961 83.7078 298.192 80.7566C298.152 80.9537 298.112 81.1508 298.077 81.3478C297.973 81.9144 297.923 82.4761 297.868 83.0427C297.868 83.5551 297.868 84.0182 297.918 84.5306C298.023 85.0972 298.177 85.7131 298.492 86.2255C298.646 86.4817 298.856 86.6886 299.116 86.8413C299.53 87.0975 299.999 87.0975 300.468 87.0975C300.678 87.0975 301.042 87.0482 301.352 87.0482L301.456 86.7379C303.797 78.8795 306.762 73.9526 309.417 72.307C309.053 73.4895 308.743 74.7212 308.743 75.6967C308.743 77.495 310.356 77.697 310.565 77.697C310.67 74.1546 312.177 71.228 314.154 69.277C314.363 69.0701 312.592 68.198 311.499 68.4542L311.653 68.1438L311.638 68.1586ZM262.74 78.2242C261.438 80.5349 258.732 84.7967 257.644 83.4122C255.718 80.998 260.973 70.1146 264.043 70.1146C264.822 70.1146 265.605 70.6812 266.069 71.0901C264.976 72.8342 263.679 75.5588 262.79 78.2291H262.74V78.2242ZM271.2 77.3423C270.996 76.7314 270.856 76.1598 270.856 75.7066C270.856 71.1344 275.433 68.0059 277.619 68.0059C279.805 68.0059 280.479 69.2918 280.479 69.2918H280.529C280.529 69.2918 274.494 70.8832 274.494 75.3518C274.494 80.3329 279.855 85.7229 271.739 86.8561C269.738 87.1419 268.58 85.9249 268.061 84.5848C266.983 85.7722 265.805 86.595 264.612 86.595C262.271 86.595 261.597 84.7474 261.802 82.284C260.764 84.3385 259.097 86.7526 257.12 86.8019C256.911 86.8019 254.934 87.1123 254.415 83.2053C253.686 77.9138 258.523 68.2128 262.74 68.0551C264.507 68.0059 265.915 69.4396 266.384 70.7748C267.063 69.7992 267.632 69.1834 267.946 69.1834C269.558 69.1834 270.496 70.5678 270.496 70.5678C268.47 71.8537 263.264 84.5355 265.71 84.5355C266.179 84.5355 266.928 83.7719 267.741 82.7077C267.786 81.2 268.365 81.2493 268.365 81.2493C268.365 81.2493 268.38 81.4464 268.445 81.7469C269.488 80.2541 270.541 78.4903 271.21 77.3423H271.2ZM269.074 83.3284C269.468 83.9098 270.077 84.3877 271.011 84.3877C272.623 84.3877 272.727 82.7421 272.727 81.6681C272.727 81.1064 272.223 79.9683 271.739 78.7711C271.065 80.1605 270.142 81.8652 269.074 83.3284Z" fill="white"/>
<path fill-rule="evenodd" clip-rule="evenodd" d="M185.567 29.0047C186.106 29.0047 186.506 29.1623 186.76 29.4777C187.015 29.793 187.144 30.2118 187.144 30.7389V31.3597H186.406V30.6995C186.406 30.3842 186.341 30.1379 186.211 29.9654C186.081 29.793 185.872 29.7043 185.587 29.7043C185.303 29.7043 185.103 29.793 184.968 29.9654C184.834 30.1379 184.769 30.3842 184.769 30.6995V34.3454C184.769 34.6607 184.834 34.9071 184.968 35.0795C185.103 35.252 185.308 35.3406 185.587 35.3406C185.867 35.3406 186.081 35.252 186.211 35.0795C186.341 34.9071 186.406 34.6607 186.406 34.3454V33.4487H187.144V34.306C187.144 34.8332 187.015 35.252 186.76 35.5673C186.506 35.8826 186.106 36.0403 185.567 36.0403C185.028 36.0403 184.639 35.8826 184.384 35.5673C184.13 35.252 184 34.8332 184 34.306V30.7389C184 30.4778 184.03 30.2364 184.095 30.0245C184.16 29.8127 184.255 29.6304 184.384 29.4777C184.514 29.3249 184.679 29.2116 184.873 29.1279C185.068 29.0441 185.303 29.0047 185.567 29.0047ZM188.921 35.9664V29.7683H187.634V29.0687H190.988V29.7683H189.7V35.9664H188.921ZM193.094 29.0687C193.648 29.0687 194.047 29.2165 194.292 29.5171C194.536 29.8176 194.661 30.2265 194.661 30.7537V31.5814C194.661 32.1332 194.531 32.5471 194.267 32.8279C194.002 33.1088 193.593 33.2467 193.034 33.2467H192.345V35.9664H191.567V29.0687H193.094ZM193.034 32.557C193.328 32.557 193.543 32.488 193.683 32.3451C193.823 32.2022 193.892 31.9657 193.892 31.6307V30.7143C193.892 30.399 193.833 30.1625 193.708 30.0048C193.583 29.8472 193.378 29.7683 193.094 29.7683H192.345V32.557H193.034ZM195.21 30.734C195.21 30.2019 195.34 29.7782 195.604 29.4678C195.869 29.1574 196.268 28.9998 196.807 28.9998C197.346 28.9998 197.751 29.1574 198.015 29.4678C198.28 29.7782 198.414 30.2019 198.414 30.734V34.3011C198.414 34.8283 198.28 35.247 198.015 35.5624C197.751 35.8777 197.346 36.0353 196.807 36.0353C196.268 36.0353 195.869 35.8777 195.604 35.5624C195.34 35.247 195.21 34.8283 195.21 34.3011V30.734ZM195.979 34.3405C195.979 34.6558 196.049 34.9021 196.183 35.0746C196.318 35.247 196.528 35.3357 196.807 35.3357C197.087 35.3357 197.301 35.247 197.436 35.0746C197.571 34.9021 197.636 34.6558 197.636 34.3405V30.6946C197.636 30.3793 197.571 30.1329 197.436 29.9605C197.301 29.7881 197.092 29.6994 196.807 29.6994C196.523 29.6994 196.318 29.7881 196.183 29.9605C196.049 30.1329 195.979 30.3793 195.979 30.6946V34.3405ZM200.99 32.7836L199.962 35.9664H199.153V29.0687H199.842V34.2124L200.461 32.3106L201.579 29.0687H202.447V35.9664H201.748V30.4778L200.99 32.7836ZM205.811 35.9565H205.063L203.905 30.468V35.9664H203.226V29.0687H204.314L205.462 34.577L206.57 29.0687H207.658V35.9664H206.919V30.4187L205.811 35.9565ZM214.99 36.9123V35.9664H212.135V36.9123H211.386V35.2864H211.836C211.955 35.1534 212.035 35.0056 212.07 34.843C212.105 34.6804 212.13 34.4932 212.145 34.2814L212.415 29.0687H215.22V35.2864H215.749V36.9123H214.99ZM212.904 34.2715C212.889 34.5228 212.864 34.7248 212.819 34.8824C212.774 35.0401 212.699 35.1731 212.584 35.2864H214.431V29.7683H213.133L212.904 34.2715ZM216.368 30.734C216.368 30.2019 216.497 29.7782 216.762 29.4678C217.026 29.1574 217.426 28.9998 217.965 28.9998C218.504 28.9998 218.908 29.1574 219.173 29.4678C219.437 29.7782 219.572 30.2019 219.572 30.734V34.3011C219.572 34.8283 219.437 35.247 219.173 35.5624C218.908 35.8777 218.504 36.0353 217.965 36.0353C217.426 36.0353 217.026 35.8777 216.762 35.5624C216.497 35.247 216.368 34.8283 216.368 34.3011V30.734ZM217.136 34.3405C217.136 34.6558 217.206 34.9021 217.341 35.0746C217.476 35.247 217.685 35.3357 217.965 35.3357C218.244 35.3357 218.459 35.247 218.594 35.0746C218.728 34.9021 218.793 34.6558 218.793 34.3405V30.6946C218.793 30.3793 218.728 30.1329 218.594 29.9605C218.459 29.7881 218.249 29.6994 217.965 29.6994C217.68 29.6994 217.476 29.7881 217.341 29.9605C217.206 30.1329 217.136 30.3793 217.136 30.6946V34.3405ZM222.886 35.9565H222.137L220.979 30.468V35.9664H220.301V29.0687H221.389L222.537 34.577L223.645 29.0687H224.733V35.9664H223.994V30.4187L222.886 35.9565ZM226.32 34.577L226.05 35.9664H225.332L226.669 29.0687H227.797L229.135 35.9664H228.356L228.087 34.577H226.32ZM226.42 33.9168H227.977L227.188 29.9359L226.42 33.9168ZM230.083 35.9664H229.794V35.0105H230.542V35.8974L230.153 36.8335H229.834L230.083 35.9664ZM236.003 29.0687C236.547 29.0687 236.936 29.1968 237.171 29.4481C237.405 29.6994 237.52 30.0837 237.52 30.5961V30.9212C237.52 31.2908 237.46 31.5864 237.34 31.813C237.22 32.0396 237.006 32.1973 236.701 32.2909C237.041 32.3845 237.28 32.557 237.425 32.8132C237.57 33.0694 237.64 33.3896 237.64 33.769V34.3503C237.64 34.8677 237.51 35.2667 237.25 35.5476C236.991 35.8284 236.587 35.9664 236.043 35.9664H234.435V29.0687H236.003ZM235.813 31.9953C236.127 31.9953 236.362 31.9312 236.517 31.8081C236.671 31.6849 236.751 31.4386 236.751 31.0789V30.6749C236.751 30.3645 236.691 30.1379 236.577 29.9901C236.462 29.8422 236.262 29.7683 235.983 29.7683H235.214V31.9953H235.813ZM236.043 35.2667C236.597 35.2667 236.871 34.9563 236.871 34.3306V33.7197C236.871 33.3305 236.791 33.0644 236.637 32.9166C236.482 32.7688 236.232 32.6949 235.893 32.6949H235.214V35.2667H236.043ZM242.631 32.9708L242.222 33.6507V35.9664H241.443V29.0687H242.222V32.3993L244.078 29.0687H244.867L243.1 32.2121L244.927 35.9664H244.128L242.631 32.9708ZM245.466 30.734C245.466 30.2019 245.596 29.7782 245.86 29.4678C246.125 29.1574 246.524 28.9998 247.063 28.9998C247.602 28.9998 248.006 29.1574 248.271 29.4678C248.535 29.7782 248.67 30.2019 248.67 30.734V34.3011C248.67 34.8283 248.535 35.247 248.271 35.5624C248.006 35.8777 247.602 36.0353 247.063 36.0353C246.524 36.0353 246.125 35.8777 245.86 35.5624C245.596 35.247 245.466 34.8283 245.466 34.3011V30.734ZM246.234 34.3405C246.234 34.6558 246.304 34.9021 246.439 35.0746C246.574 35.247 246.783 35.3357 247.063 35.3357C247.342 35.3357 247.557 35.247 247.692 35.0746C247.827 34.9021 247.892 34.6558 247.892 34.3405V30.6946C247.892 30.3793 247.827 30.1329 247.692 29.9605C247.557 29.7881 247.347 29.6994 247.063 29.6994C246.778 29.6994 246.574 29.7881 246.439 29.9605C246.304 30.1329 246.234 30.3793 246.234 30.6946V34.3405ZM250.477 35.9664V29.7683H249.189V29.0687H252.543V29.7683H251.256V35.9664H250.477ZM253.062 30.734C253.062 30.2019 253.192 29.7782 253.457 29.4678C253.721 29.1574 254.12 28.9998 254.659 28.9998C255.199 28.9998 255.603 29.1574 255.867 29.4678C256.132 29.7782 256.267 30.2019 256.267 30.734V34.3011C256.267 34.8283 256.132 35.247 255.867 35.5624C255.603 35.8777 255.199 36.0353 254.659 36.0353C254.12 36.0353 253.721 35.8777 253.457 35.5624C253.192 35.247 253.062 34.8283 253.062 34.3011V30.734ZM253.831 34.3405C253.831 34.6558 253.901 34.9021 254.036 35.0746C254.17 35.247 254.38 35.3357 254.659 35.3357C254.939 35.3357 255.154 35.247 255.288 35.0746C255.423 34.9021 255.488 34.6558 255.488 34.3405V30.6946C255.488 30.3793 255.423 30.1329 255.288 29.9605C255.154 29.7881 254.944 29.6994 254.659 29.6994C254.375 29.6994 254.17 29.7881 254.036 29.9605C253.901 30.1329 253.831 30.3793 253.831 30.6946V34.3405ZM258.533 29.0687C259.087 29.0687 259.486 29.2165 259.73 29.5171C259.975 29.8176 260.1 30.2265 260.1 30.7537V31.5814C260.1 32.1332 259.97 32.5471 259.706 32.8279C259.441 33.1088 259.032 33.2467 258.473 33.2467H257.784V35.9664H257.005V29.0687H258.533ZM258.473 32.557C258.767 32.557 258.982 32.488 259.122 32.3451C259.261 32.2022 259.331 31.9657 259.331 31.6307V30.7143C259.331 30.399 259.271 30.1625 259.147 30.0048C259.022 29.8472 258.817 29.7683 258.533 29.7683H257.784V32.557H258.473ZM262.176 31.7884C262.735 31.7884 263.144 31.9263 263.409 32.2072C263.673 32.488 263.803 32.9018 263.803 33.4537V34.2814C263.803 34.8085 263.678 35.2175 263.429 35.518C263.179 35.8186 262.78 35.9664 262.236 35.9664H260.709V29.0687H261.487V31.7884H262.176ZM265.221 29.0687V35.9664H264.452V29.0687H265.221ZM262.236 35.2667C262.521 35.2667 262.725 35.1879 262.85 35.0303C262.975 34.8726 263.035 34.6361 263.035 34.3208V33.4044C263.035 33.0694 262.965 32.8329 262.825 32.69C262.685 32.5471 262.471 32.4781 262.176 32.4781H261.487V35.2667H262.236ZM267.756 32.9905L266.588 35.9664H265.85L267.257 32.4092L265.939 29.0687H266.748L267.826 31.8278L268.914 29.0687H269.643L268.335 32.4092L269.733 35.9664H268.914L267.756 32.9905ZM274.963 28.9998C275.502 28.9998 275.902 29.1574 276.156 29.4727C276.411 29.7881 276.541 30.2068 276.541 30.734V31.3548H275.802V30.6946C275.802 30.3793 275.737 30.1329 275.607 29.9605C275.478 29.7881 275.268 29.6994 274.983 29.6994C274.699 29.6994 274.499 29.7881 274.364 29.9605C274.23 30.1329 274.165 30.3793 274.165 30.6946V34.3405C274.165 34.6558 274.23 34.9021 274.364 35.0746C274.499 35.247 274.704 35.3357 274.983 35.3357C275.263 35.3357 275.478 35.247 275.607 35.0746C275.737 34.9021 275.802 34.6558 275.802 34.3405V33.4438H276.541V34.3011C276.541 34.8283 276.411 35.247 276.156 35.5624C275.902 35.8777 275.502 36.0353 274.963 36.0353C274.424 36.0353 274.035 35.8777 273.781 35.5624C273.526 35.247 273.396 34.8283 273.396 34.3011V30.734C273.396 30.4729 273.426 30.2315 273.491 30.0196C273.556 29.8078 273.651 29.6255 273.781 29.4727C273.91 29.32 274.075 29.2067 274.27 29.1229C274.464 29.0392 274.699 28.9998 274.963 28.9998ZM278.847 31.9165C279.391 31.9165 279.805 32.0446 280.079 32.3057C280.354 32.5668 280.494 32.9757 280.494 33.5325V34.2912C280.494 34.8282 280.364 35.2421 280.104 35.5328C279.845 35.8235 279.44 35.9664 278.886 35.9664H277.259V29.0687H280.204V29.7683H278.028V31.9165H278.847ZM278.886 35.2667C279.171 35.2667 279.381 35.1928 279.515 35.045C279.65 34.8972 279.715 34.6607 279.715 34.3405V33.4832C279.715 33.1482 279.64 32.9166 279.495 32.7935C279.351 32.6703 279.131 32.6062 278.847 32.6062H278.028V35.2667H278.886ZM282.72 31.7884C283.279 31.7884 283.688 31.9263 283.952 32.2072C284.217 32.488 284.347 32.9018 284.347 33.4537V34.2814C284.347 34.8085 284.222 35.2175 283.972 35.518C283.723 35.8186 283.324 35.9664 282.78 35.9664H281.252V29.0687H282.031V31.7884H282.72ZM285.764 29.0687V35.9664H284.996V29.0687H285.764ZM282.78 35.2667C283.064 35.2667 283.269 35.1879 283.393 35.0303C283.518 34.8726 283.578 34.6361 283.578 34.3208V33.4044C283.578 33.0694 283.508 32.8329 283.368 32.69C283.229 32.5471 283.014 32.4781 282.72 32.4781H282.031V35.2667H282.78ZM288.13 29.0687C288.674 29.0687 289.063 29.1968 289.298 29.4481C289.533 29.6994 289.647 30.0837 289.647 30.5961V30.9212C289.647 31.2908 289.587 31.5864 289.468 31.813C289.348 32.0396 289.133 32.1973 288.829 32.2909C289.168 32.3845 289.408 32.557 289.553 32.8132C289.697 33.0694 289.767 33.3896 289.767 33.769V34.3503C289.767 34.8677 289.637 35.2667 289.378 35.5476C289.118 35.8284 288.714 35.9664 288.17 35.9664H286.563V29.0687H288.13ZM287.94 31.9953C288.255 31.9953 288.489 31.9312 288.644 31.8081C288.799 31.6849 288.879 31.4386 288.879 31.0789V30.6749C288.879 30.3645 288.819 30.1379 288.704 29.9901C288.589 29.8422 288.39 29.7683 288.11 29.7683H287.341V31.9953H287.94ZM288.17 35.2667C288.724 35.2667 288.998 34.9563 288.998 34.3306V33.7197C288.998 33.3305 288.919 33.0644 288.764 32.9166C288.609 32.7688 288.36 32.6949 288.02 32.6949H287.341V35.2667H288.17ZM291.264 34.577L290.995 35.9664H290.276L291.614 29.0687H292.742L294.079 35.9664H293.301L293.031 34.577H291.264ZM291.364 33.9168H292.922L292.133 29.9359L291.364 33.9168ZM298.082 28.9998C298.621 28.9998 299.021 29.1574 299.285 29.4678C299.55 29.7782 299.68 30.2019 299.68 30.734V34.3011C299.68 34.8283 299.55 35.247 299.285 35.5624C299.021 35.8777 298.621 36.0353 298.082 36.0353C297.543 36.0353 297.139 35.8777 296.874 35.5624C296.61 35.247 296.475 34.8283 296.475 34.3011V32.8624H295.467V35.9664H294.688V29.0687H295.467V32.1727H296.475V30.734C296.475 30.2019 296.61 29.7782 296.874 29.4678C297.139 29.1574 297.543 28.9998 298.082 28.9998ZM298.082 29.6994C297.798 29.6994 297.588 29.7881 297.453 29.9605C297.319 30.1329 297.254 30.3793 297.254 30.6946V34.3405C297.254 34.6558 297.319 34.9021 297.453 35.0746C297.588 35.247 297.798 35.3357 298.082 35.3357C298.367 35.3357 298.571 35.247 298.706 35.0746C298.841 34.9021 298.911 34.6558 298.911 34.3405V30.6946C298.911 30.3793 298.841 30.1329 298.706 29.9605C298.571 29.7881 298.362 29.6994 298.082 29.6994ZM301.496 35.9664V29.7683H300.209V29.0687H303.563V29.7683H302.275V35.9664H301.496ZM305.649 29.0047C306.188 29.0047 306.587 29.1623 306.842 29.4777C307.096 29.793 307.226 30.2118 307.226 30.7389V31.3597H306.487V30.6995C306.487 30.3842 306.423 30.1379 306.293 29.9654C306.163 29.793 305.953 29.7043 305.669 29.7043C305.384 29.7043 305.185 29.793 305.05 29.9654C304.915 30.1379 304.85 30.3842 304.85 30.6995V34.3454C304.85 34.6607 304.915 34.9071 305.05 35.0795C305.185 35.252 305.389 35.3406 305.669 35.3406C305.948 35.3406 306.163 35.252 306.293 35.0795C306.423 34.9071 306.487 34.6607 306.487 34.3454V33.4487H307.226V34.306C307.226 34.8332 307.096 35.252 306.842 35.5673C306.587 35.8826 306.188 36.0403 305.649 36.0403C305.11 36.0403 304.721 35.8826 304.466 35.5673C304.211 35.252 304.082 34.8332 304.082 34.306V30.7389C304.082 30.4778 304.112 30.2364 304.177 30.0245C304.241 29.8127 304.336 29.6304 304.466 29.4777C304.596 29.3249 304.76 29.2116 304.955 29.1279C305.15 29.0441 305.384 29.0047 305.649 29.0047ZM309.742 33.025C309.417 33.025 309.163 33.0989 308.988 33.2467C308.813 33.3945 308.723 33.6606 308.723 34.0498V35.1337C308.723 35.3653 308.713 35.5377 308.694 35.651C308.674 35.7644 308.639 35.8727 308.594 35.9713H307.805C307.865 35.853 307.905 35.7249 307.92 35.5821C307.935 35.4392 307.945 35.2963 307.945 35.1436V34.0695C307.945 33.6951 308.01 33.3847 308.139 33.1383C308.269 32.892 308.494 32.7245 308.813 32.6309C308.239 32.4486 307.955 31.9756 307.955 31.2119V30.6503C307.955 30.1379 308.075 29.7486 308.319 29.4777C308.564 29.2067 308.958 29.0737 309.512 29.0737H311.069V35.9713H310.291V33.025H309.742ZM309.532 29.7733C309.238 29.7733 309.033 29.8521 308.908 30.0098C308.783 30.1674 308.723 30.4039 308.723 30.7192V31.3794C308.723 31.7539 308.808 32.0051 308.983 32.1332C309.158 32.2613 309.397 32.3254 309.702 32.3254H310.291V29.7733H309.532ZM317.533 35.9614H316.784L315.626 30.4729V35.9713H314.947V29.0737H316.035L317.183 34.5819L318.291 29.0737H319.38V35.9713H318.641V30.4236L317.533 35.9614ZM322.664 32.1283V32.8181H320.957V35.2717H323.053V35.9713H320.178V29.0737H323.053V29.7733H320.957V32.1283H322.664ZM326.197 32.9166C326.073 33.094 325.913 33.227 325.718 33.3206C325.524 33.4142 325.324 33.4586 325.109 33.4586C324.875 33.4586 324.67 33.4192 324.495 33.3354C324.321 33.2516 324.176 33.1383 324.061 32.9905C323.946 32.8427 323.862 32.6703 323.807 32.4683C323.752 32.2663 323.722 32.0544 323.722 31.8229V29.0737H324.5V31.7637C324.5 32.0593 324.575 32.3008 324.72 32.4831C324.865 32.6653 325.079 32.759 325.359 32.759C325.838 32.759 326.118 32.488 326.197 31.951V29.0737H326.966V35.9713H326.197V32.9166ZM328.843 35.9713V29.7733H327.555V29.0737H330.909V29.7733H329.621V35.9713H328.843ZM332.955 31.7933C333.514 31.7933 333.924 31.9312 334.188 32.2121C334.453 32.4929 334.583 32.9068 334.583 33.4586V34.2863C334.583 34.8135 334.458 35.2224 334.208 35.5229C333.959 35.8235 333.559 35.9713 333.015 35.9713H331.488V29.0737H332.267V31.7933H332.955ZM336 29.0737V35.9713H335.231V29.0737H336ZM333.015 35.2717C333.3 35.2717 333.504 35.1928 333.629 35.0352C333.754 34.8775 333.814 34.641 333.814 34.3257V33.4093C333.814 33.0743 333.744 32.8378 333.604 32.6949C333.464 32.552 333.25 32.4831 332.955 32.4831H332.267V35.2717H333.015Z" fill="white"/>
</g>
</g>
</g>
</g>
<path d="M402.475 67.1459V65.2649H406.598V60.7619H408.555V65.2649H412.659V67.1459H408.555V71.6299H406.598V67.1459H402.475ZM414.672 71.6299L419.726 61.4839C420.163 60.6479 420.505 60.2489 420.505 60.2489V60.2109C420.505 60.2109 420.296 60.2489 419.612 60.2489H413.855V58.1399H423.127V59.8499L417.218 71.6299H414.672ZM431.446 73.4349C430.04 71.1359 429.185 68.2289 429.185 65.1129C429.185 62.3769 430.002 59.8309 431.446 57.5509H433.479C432.092 59.8879 431.332 62.4529 431.332 65.1319C431.332 67.9629 432.073 70.8129 433.479 73.4349H431.446ZM435.619 71.2879L436.341 69.1789C436.816 69.4069 437.538 69.6159 438.241 69.6159C440.369 69.6159 441.49 67.8489 441.832 66.0059H441.794C441.338 66.5569 440.236 66.9559 439.267 66.9559C436.607 66.9559 434.935 64.8659 434.935 62.4339C434.935 59.9449 436.702 57.9119 439.381 57.9119C442.193 57.9119 444.587 60.2489 444.587 64.3149C444.587 67.8489 442.554 71.8579 438.374 71.8579C437.462 71.8579 436.474 71.7059 435.619 71.2879ZM439.837 64.9419C441.053 64.9419 442.06 64.2959 442.06 63.4789C442.06 61.7879 440.806 60.1729 439.4 60.1729C438.127 60.1729 437.367 61.1609 437.367 62.4339C437.367 63.8019 438.222 64.9419 439.837 64.9419ZM447.086 71.2879L447.808 69.1789C448.283 69.4069 449.005 69.6159 449.708 69.6159C451.836 69.6159 452.957 67.8489 453.299 66.0059H453.261C452.805 66.5569 451.703 66.9559 450.734 66.9559C448.074 66.9559 446.402 64.8659 446.402 62.4339C446.402 59.9449 448.169 57.9119 450.848 57.9119C453.66 57.9119 456.054 60.2489 456.054 64.3149C456.054 67.8489 454.021 71.8579 449.841 71.8579C448.929 71.8579 447.941 71.7059 447.086 71.2879ZM451.304 64.9419C452.52 64.9419 453.527 64.2959 453.527 63.4789C453.527 61.7879 452.273 60.1729 450.867 60.1729C449.594 60.1729 448.834 61.1609 448.834 62.4339C448.834 63.8019 449.689 64.9419 451.304 64.9419ZM458.553 71.2879L459.275 69.1789C459.75 69.4069 460.472 69.6159 461.175 69.6159C463.303 69.6159 464.424 67.8489 464.766 66.0059H464.728C464.272 66.5569 463.17 66.9559 462.201 66.9559C459.541 66.9559 457.869 64.8659 457.869 62.4339C457.869 59.9449 459.636 57.9119 462.315 57.9119C465.127 57.9119 467.521 60.2489 467.521 64.3149C467.521 67.8489 465.488 71.8579 461.308 71.8579C460.396 71.8579 459.408 71.7059 458.553 71.2879ZM462.771 64.9419C463.987 64.9419 464.994 64.2959 464.994 63.4789C464.994 61.7879 463.74 60.1729 462.334 60.1729C461.061 60.1729 460.301 61.1609 460.301 62.4339C460.301 63.8019 461.156 64.9419 462.771 64.9419ZM468.831 73.4349C470.237 70.8129 470.978 67.9629 470.978 65.1319C470.978 62.4529 470.218 59.8879 468.831 57.5509H470.864C472.308 59.8309 473.125 62.3769 473.125 65.1129C473.125 68.2289 472.27 71.1359 470.864 73.4349H468.831ZM484.745 71.8579C481.059 71.8579 479.843 68.7419 479.843 64.8659C479.843 60.9899 481.059 57.9119 484.745 57.9119C488.431 57.9119 489.628 60.9899 489.628 64.8659C489.628 68.7419 488.431 71.8579 484.745 71.8579ZM484.745 69.6159C486.588 69.6159 487.12 67.5259 487.12 64.8659C487.12 62.2439 486.588 60.1729 484.745 60.1729C482.902 60.1729 482.37 62.2439 482.37 64.8659C482.37 67.5259 482.902 69.6159 484.745 69.6159ZM496.676 71.8579C492.99 71.8579 491.774 68.7419 491.774 64.8659C491.774 60.9899 492.99 57.9119 496.676 57.9119C500.362 57.9119 501.559 60.9899 501.559 64.8659C501.559 68.7419 500.362 71.8579 496.676 71.8579ZM496.676 69.6159C498.519 69.6159 499.051 67.5259 499.051 64.8659C499.051 62.2439 498.519 60.1729 496.676 60.1729C494.833 60.1729 494.301 62.2439 494.301 64.8659C494.301 67.5259 494.833 69.6159 496.676 69.6159ZM508.607 71.8579C504.921 71.8579 503.705 68.7419 503.705 64.8659C503.705 60.9899 504.921 57.9119 508.607 57.9119C512.293 57.9119 513.49 60.9899 513.49 64.8659C513.49 68.7419 512.293 71.8579 508.607 71.8579ZM508.607 69.6159C510.45 69.6159 510.982 67.5259 510.982 64.8659C510.982 62.2439 510.45 60.1729 508.607 60.1729C506.764 60.1729 506.232 62.2439 506.232 64.8659C506.232 67.5259 506.764 69.6159 508.607 69.6159ZM515.825 67.2599V65.1509H521.525V67.2599H515.825ZM528.738 71.8579C525.052 71.8579 523.836 68.7419 523.836 64.8659C523.836 60.9899 525.052 57.9119 528.738 57.9119C532.424 57.9119 533.621 60.9899 533.621 64.8659C533.621 68.7419 532.424 71.8579 528.738 71.8579ZM528.738 69.6159C530.581 69.6159 531.113 67.5259 531.113 64.8659C531.113 62.2439 530.581 60.1729 528.738 60.1729C526.895 60.1729 526.363 62.2439 526.363 64.8659C526.363 67.5259 526.895 69.6159 528.738 69.6159ZM540.669 71.8579C536.983 71.8579 535.767 68.7419 535.767 64.8659C535.767 60.9899 536.983 57.9119 540.669 57.9119C544.355 57.9119 545.552 60.9899 545.552 64.8659C545.552 68.7419 544.355 71.8579 540.669 71.8579ZM540.669 69.6159C542.512 69.6159 543.044 67.5259 543.044 64.8659C543.044 62.2439 542.512 60.1729 540.669 60.1729C538.826 60.1729 538.294 62.2439 538.294 64.8659C538.294 67.5259 538.826 69.6159 540.669 69.6159ZM547.888 67.2599V65.1509H553.588V67.2599H547.888ZM560.801 71.8579C557.115 71.8579 555.899 68.7419 555.899 64.8659C555.899 60.9899 557.115 57.9119 560.801 57.9119C564.487 57.9119 565.684 60.9899 565.684 64.8659C565.684 68.7419 564.487 71.8579 560.801 71.8579ZM560.801 69.6159C562.644 69.6159 563.176 67.5259 563.176 64.8659C563.176 62.2439 562.644 60.1729 560.801 60.1729C558.958 60.1729 558.426 62.2439 558.426 64.8659C558.426 67.5259 558.958 69.6159 560.801 69.6159ZM572.732 71.8579C569.046 71.8579 567.83 68.7419 567.83 64.8659C567.83 60.9899 569.046 57.9119 572.732 57.9119C576.418 57.9119 577.615 60.9899 577.615 64.8659C577.615 68.7419 576.418 71.8579 572.732 71.8579ZM572.732 69.6159C574.575 69.6159 575.107 67.5259 575.107 64.8659C575.107 62.2439 574.575 60.1729 572.732 60.1729C570.889 60.1729 570.357 62.2439 570.357 64.8659C570.357 67.5259 570.889 69.6159 572.732 69.6159Z" fill="white"/>
<path d="M402.504 85.0939C402.504 83.1619 403.824 81.9139 405.552 81.9139C407.268 81.9139 408.18 83.1979 408.18 84.7579C408.18 84.9139 408.156 85.0819 408.132 85.2499H403.716C403.776 86.5579 404.712 87.2659 405.804 87.2659C406.452 87.2659 407.112 86.9899 407.592 86.5579L408.084 87.4099C407.496 87.9499 406.572 88.2739 405.732 88.2739C403.824 88.2739 402.504 86.8939 402.504 85.0939ZM403.752 84.4099H407.004C406.968 83.3659 406.32 82.8139 405.528 82.8139C404.628 82.8139 403.92 83.4019 403.752 84.4099ZM408.837 88.1299L410.793 85.0099V84.9859L409.005 82.0579H410.241L411.729 84.5419H412.593V82.0579H413.697V84.5419H414.561L416.061 82.0579H417.285L415.509 84.9859V85.0099L417.465 88.1299H416.157L414.573 85.5379H413.697V88.1299H412.593V85.5379H411.729L410.133 88.1299H408.837ZM417.973 85.0939C417.973 83.1619 419.293 81.9139 421.021 81.9139C422.737 81.9139 423.649 83.1979 423.649 84.7579C423.649 84.9139 423.625 85.0819 423.601 85.2499H419.185C419.245 86.5579 420.181 87.2659 421.273 87.2659C421.921 87.2659 422.581 86.9899 423.061 86.5579L423.553 87.4099C422.965 87.9499 422.041 88.2739 421.201 88.2739C419.293 88.2739 417.973 86.8939 417.973 85.0939ZM419.221 84.4099H422.473C422.437 83.3659 421.789 82.8139 420.997 82.8139C420.097 82.8139 419.389 83.4019 419.221 84.4099ZM426.236 87.1699H428.924V83.0059H427.1V83.3299C427.1 84.2419 427.004 85.9699 426.236 87.1699ZM424.292 87.1699H425.036C425.888 86.0059 425.984 84.1099 425.984 83.1739V82.0579H430.088V87.1699H430.952V89.5699H429.884V88.1299H425.384V89.5699H424.292V87.1699ZM431.707 85.0939C431.707 83.1619 433.027 81.9139 434.755 81.9139C436.471 81.9139 437.383 83.1979 437.383 84.7579C437.383 84.9139 437.359 85.0819 437.335 85.2499H432.919C432.979 86.5579 433.915 87.2659 435.007 87.2659C435.655 87.2659 436.315 86.9899 436.795 86.5579L437.287 87.4099C436.699 87.9499 435.775 88.2739 434.935 88.2739C433.027 88.2739 431.707 86.8939 431.707 85.0939ZM432.955 84.4099H436.207C436.171 83.3659 435.523 82.8139 434.731 82.8139C433.831 82.8139 433.123 83.4019 432.955 84.4099ZM438.783 88.1299V82.0579H439.947V84.5299H443.019V82.0579H444.183V88.1299H443.019V85.5259H439.947V88.1299H438.783ZM445.582 85.0939C445.582 83.1619 446.902 81.9139 448.63 81.9139C450.346 81.9139 451.258 83.1979 451.258 84.7579C451.258 84.9139 451.234 85.0819 451.21 85.2499H446.794C446.854 86.5579 447.79 87.2659 448.882 87.2659C449.53 87.2659 450.19 86.9899 450.67 86.5579L451.162 87.4099C450.574 87.9499 449.65 88.2739 448.81 88.2739C446.902 88.2739 445.582 86.8939 445.582 85.0939ZM446.83 84.4099H450.082C450.046 83.3659 449.398 82.8139 448.606 82.8139C447.706 82.8139 446.998 83.4019 446.83 84.4099ZM452.658 88.1299V82.0579H455.166C456.39 82.0579 457.194 82.5979 457.194 83.6179C457.194 84.2059 456.882 84.7099 456.33 84.9499V84.9619C457.086 85.1419 457.482 85.7299 457.482 86.4019C457.482 87.5299 456.57 88.1299 455.25 88.1299H452.658ZM453.822 84.6259H454.962C455.658 84.6259 456.006 84.2659 456.006 83.7019C456.006 83.1499 455.658 82.8619 454.926 82.8619H453.822V84.6259ZM453.822 87.3139H455.07C455.91 87.3139 456.306 86.9299 456.306 86.3659C456.306 85.7659 455.862 85.4059 455.058 85.4059H453.822V87.3139ZM458.892 88.1299V82.0579H460.056V84.5299H463.128V82.0579H464.292V88.1299H463.128V85.5259H460.056V88.1299H458.892ZM465.692 85.0819C465.692 83.2459 467.156 81.9139 468.956 81.9139C470.768 81.9139 472.232 83.2459 472.232 85.0819C472.232 86.9299 470.768 88.2739 468.968 88.2739C467.156 88.2739 465.692 86.9299 465.692 85.0819ZM466.88 85.0819C466.88 86.3539 467.816 87.2659 468.968 87.2659C470.108 87.2659 471.056 86.3539 471.056 85.0819C471.056 83.8219 470.108 82.9219 468.968 82.9219C467.816 82.9219 466.88 83.8219 466.88 85.0819ZM476.238 85.0939C476.238 83.2939 477.582 81.9139 479.49 81.9139C480.294 81.9139 481.194 82.1899 481.77 82.8019L481.218 83.6179C480.81 83.2099 480.174 82.9219 479.538 82.9219C478.314 82.9219 477.426 83.8459 477.426 85.0819C477.426 86.3179 478.314 87.2659 479.574 87.2659C480.246 87.2659 480.978 86.9419 481.446 86.4499L481.914 87.3019C481.362 87.8899 480.438 88.2739 479.49 88.2739C477.57 88.2739 476.238 86.9179 476.238 85.0939ZM485.957 88.1299V87.0979H487.829V81.6259C487.829 81.3619 487.841 81.1099 487.841 81.1099H487.817C487.817 81.1099 487.721 81.2899 487.409 81.6019L486.617 82.3699L485.897 81.6259L487.925 79.6579H488.981V87.0979H490.841V88.1299H485.957ZM494.935 88.2739C492.679 88.2739 491.935 86.3299 491.935 83.8819C491.935 81.4459 492.679 79.5139 494.935 79.5139C497.203 79.5139 497.935 81.4459 497.935 83.8819C497.935 86.3299 497.203 88.2739 494.935 88.2739ZM494.935 87.1819C496.327 87.1819 496.711 85.7419 496.711 83.8819C496.711 82.0459 496.327 80.6059 494.935 80.6059C493.555 80.6059 493.159 82.0459 493.159 83.8819C493.159 85.7419 493.555 87.1819 494.935 87.1819ZM499.508 83.2939V82.0579H500.732V83.2939H499.508ZM499.508 88.1299V86.8939H500.732V88.1299H499.508ZM505.306 88.2739C503.05 88.2739 502.306 86.3299 502.306 83.8819C502.306 81.4459 503.05 79.5139 505.306 79.5139C507.574 79.5139 508.306 81.4459 508.306 83.8819C508.306 86.3299 507.574 88.2739 505.306 88.2739ZM505.306 87.1819C506.698 87.1819 507.082 85.7419 507.082 83.8819C507.082 82.0459 506.698 80.6059 505.306 80.6059C503.926 80.6059 503.53 82.0459 503.53 83.8819C503.53 85.7419 503.926 87.1819 505.306 87.1819ZM512.771 88.2739C510.515 88.2739 509.771 86.3299 509.771 83.8819C509.771 81.4459 510.515 79.5139 512.771 79.5139C515.039 79.5139 515.771 81.4459 515.771 83.8819C515.771 86.3299 515.039 88.2739 512.771 88.2739ZM512.771 87.1819C514.163 87.1819 514.547 85.7419 514.547 83.8819C514.547 82.0459 514.163 80.6059 512.771 80.6059C511.391 80.6059 510.995 82.0459 510.995 83.8819C510.995 85.7419 511.391 87.1819 512.771 87.1819ZM521.592 87.1699H524.28V83.0059H522.456V83.3299C522.456 84.2419 522.36 85.9699 521.592 87.1699ZM519.648 87.1699H520.392C521.244 86.0059 521.34 84.1099 521.34 83.1739V82.0579H525.444V87.1699H526.308V89.5699H525.24V88.1299H520.74V89.5699H519.648V87.1699ZM527.063 85.0819C527.063 83.2459 528.527 81.9139 530.327 81.9139C532.139 81.9139 533.603 83.2459 533.603 85.0819C533.603 86.9299 532.139 88.2739 530.339 88.2739C528.527 88.2739 527.063 86.9299 527.063 85.0819ZM528.251 85.0819C528.251 86.3539 529.187 87.2659 530.339 87.2659C531.479 87.2659 532.427 86.3539 532.427 85.0819C532.427 83.8219 531.479 82.9219 530.339 82.9219C529.187 82.9219 528.251 83.8219 528.251 85.0819ZM537.789 88.1299V87.0979H539.661V81.6259C539.661 81.3619 539.673 81.1099 539.673 81.1099H539.649C539.649 81.1099 539.553 81.2899 539.241 81.6019L538.449 82.3699L537.729 81.6259L539.757 79.6579H540.813V87.0979H542.673V88.1299H537.789ZM544.043 87.9259L544.427 86.8939C544.715 87.0379 545.183 87.1819 545.639 87.1819C547.199 87.1819 548.003 85.7419 548.183 84.3379H548.159C547.811 84.8179 547.031 85.1299 546.287 85.1299C544.679 85.1299 543.611 83.9179 543.611 82.3459C543.611 80.6779 544.751 79.5139 546.335 79.5139C548.147 79.5139 549.503 81.0859 549.503 83.5099C549.503 85.6819 548.315 88.2739 545.687 88.2739C545.147 88.2739 544.559 88.1779 544.043 87.9259ZM546.527 84.1339C547.487 84.1339 548.267 83.5459 548.267 82.9459C548.267 81.8419 547.427 80.6059 546.347 80.6059C545.375 80.6059 544.799 81.3499 544.799 82.3459C544.799 83.3779 545.447 84.1339 546.527 84.1339ZM551.035 83.2939V82.0579H552.259V83.2939H551.035ZM551.035 88.1299V86.8939H552.259V88.1299H551.035ZM556.834 88.2739C554.578 88.2739 553.834 86.3299 553.834 83.8819C553.834 81.4459 554.578 79.5139 556.834 79.5139C559.102 79.5139 559.834 81.4459 559.834 83.8819C559.834 86.3299 559.102 88.2739 556.834 88.2739ZM556.834 87.1819C558.226 87.1819 558.61 85.7419 558.61 83.8819C558.61 82.0459 558.226 80.6059 556.834 80.6059C555.454 80.6059 555.058 82.0459 555.058 83.8819C555.058 85.7419 555.454 87.1819 556.834 87.1819ZM564.298 88.2739C562.042 88.2739 561.298 86.3299 561.298 83.8819C561.298 81.4459 562.042 79.5139 564.298 79.5139C566.566 79.5139 567.298 81.4459 567.298 83.8819C567.298 86.3299 566.566 88.2739 564.298 88.2739ZM564.298 87.1819C565.69 87.1819 566.074 85.7419 566.074 83.8819C566.074 82.0459 565.69 80.6059 564.298 80.6059C562.918 80.6059 562.522 82.0459 562.522 83.8819C562.522 85.7419 562.918 87.1819 564.298 87.1819Z" fill="white"/>
<path d="M612.6 78.3459C612.6 75.8859 614.388 74.0139 616.908 74.0139C618 74.0139 619.188 74.3499 620.004 75.1299L619.404 76.0179C618.78 75.4659 617.832 75.0939 616.956 75.0939C614.988 75.0939 613.824 76.5459 613.824 78.3339C613.824 80.1339 615.012 81.6819 616.98 81.6819C617.928 81.6819 618.9 81.2619 619.584 80.5779L620.22 81.4299C619.5 82.1499 618.444 82.7739 616.944 82.7739C614.316 82.7739 612.6 80.8299 612.6 78.3459ZM620.998 80.9739C620.998 79.0659 623.362 78.8499 624.622 78.8499H624.934V78.7299C624.934 77.7339 624.358 77.3979 623.602 77.3979C623.002 77.3979 622.39 77.6379 621.898 77.9859L621.43 77.1339C621.922 76.7259 622.846 76.4139 623.698 76.4139C625.222 76.4139 626.098 77.2539 626.098 78.7899V82.6299H625.006V82.0179C625.006 81.7419 625.042 81.5379 625.042 81.5379H625.018C624.67 82.2339 623.926 82.7739 623.026 82.7739C621.97 82.7739 620.998 82.1139 620.998 80.9739ZM622.162 80.8779C622.162 81.3579 622.546 81.8499 623.302 81.8499C624.322 81.8499 624.934 80.8179 624.934 79.9179V79.6899H624.634C623.77 79.6899 622.162 79.7619 622.162 80.8779ZM627.818 82.6299V76.5579H628.982V79.0299H632.054V76.5579H633.218V82.6299H632.054V80.0259H628.982V82.6299H627.818ZM635.013 82.6299V76.5579H636.177V79.0059H637.029L638.685 76.5579H640.005L637.977 79.4499V79.4739L640.245 82.6299H638.865L637.053 80.0019H636.177V82.6299H635.013ZM642.747 82.6299V77.5539H640.635V76.5579H646.023V77.5539H643.899V82.6299H642.747ZM646.754 79.7259V78.6939H650.258V79.7259H646.754ZM652.21 82.6299V74.1579H658.882V82.6299H657.694V75.1899H653.398V82.6299H652.21ZM660.387 79.5939C660.387 77.6619 661.707 76.4139 663.435 76.4139C665.151 76.4139 666.063 77.6979 666.063 79.2579C666.063 79.4139 666.039 79.5819 666.015 79.7499H661.599C661.659 81.0579 662.595 81.7659 663.687 81.7659C664.335 81.7659 664.995 81.4899 665.475 81.0579L665.967 81.9099C665.379 82.4499 664.455 82.7739 663.615 82.7739C661.707 82.7739 660.387 81.3939 660.387 79.5939ZM661.635 78.9099H664.887C664.851 77.8659 664.203 77.3139 663.411 77.3139C662.511 77.3139 661.803 77.9019 661.635 78.9099ZM668.856 82.6299V77.5539H666.744V76.5579H672.132V77.5539H670.008V82.6299H668.856ZM672.68 79.5939C672.68 77.6619 674 76.4139 675.728 76.4139C677.444 76.4139 678.356 77.6979 678.356 79.2579C678.356 79.4139 678.332 79.5819 678.308 79.7499H673.892C673.952 81.0579 674.888 81.7659 675.98 81.7659C676.628 81.7659 677.288 81.4899 677.768 81.0579L678.26 81.9099C677.672 82.4499 676.748 82.7739 675.908 82.7739C674 82.7739 672.68 81.3939 672.68 79.5939ZM673.928 78.9099H677.18C677.144 77.8659 676.496 77.3139 675.704 77.3139C674.804 77.3139 674.096 77.9019 673.928 78.9099ZM679.755 85.0299V76.5579H680.835V77.0979C680.835 77.3499 680.799 77.5539 680.799 77.5539H680.823C681.207 76.8219 681.975 76.4139 682.863 76.4139C684.507 76.4139 685.527 77.7099 685.527 79.5939C685.527 81.5259 684.375 82.7739 682.779 82.7739C682.011 82.7739 681.315 82.3899 680.895 81.7419H680.871C680.871 81.7419 680.919 81.9579 680.919 82.2699V85.0299H679.755ZM680.883 79.6179C680.883 80.6979 681.483 81.7659 682.599 81.7659C683.559 81.7659 684.351 80.9859 684.351 79.6059C684.351 78.2859 683.643 77.4339 682.635 77.4339C681.723 77.4339 680.883 78.0819 680.883 79.6179ZM686.699 79.1379C686.699 76.9659 687.323 75.6459 689.435 74.7579L691.607 73.8219L691.991 74.7819L689.663 75.7539C688.451 76.3059 687.875 77.0139 687.791 78.1779H687.815C688.355 77.3619 689.159 77.0979 689.963 77.0979C691.487 77.0979 692.543 78.1779 692.543 79.8939C692.543 81.5739 691.391 82.7739 689.675 82.7739C687.623 82.7739 686.699 81.2379 686.699 79.1379ZM687.911 79.8939C687.911 81.0939 688.691 81.7899 689.627 81.7899C690.587 81.7899 691.367 81.0939 691.367 79.9179C691.367 78.7299 690.587 78.0219 689.675 78.0219C688.643 78.0219 687.911 78.8259 687.911 79.8939ZM693.424 83.8899C693.424 83.8899 693.76 84.1539 694.12 84.1539C694.6 84.1539 694.996 83.8059 695.224 83.2539L695.524 82.5579L692.98 76.5579H694.288L695.812 80.5299C695.932 80.8299 696.04 81.2619 696.04 81.2619H696.064C696.064 81.2619 696.16 80.8539 696.268 80.5419L697.744 76.5579H699.004L696.148 83.7219C695.788 84.6699 695.032 85.1499 694.18 85.1499C693.508 85.1499 693.016 84.7779 693.016 84.7779L693.424 83.8899ZM700.146 85.0299V76.5579H701.226V77.0979C701.226 77.3499 701.19 77.5539 701.19 77.5539H701.214C701.598 76.8219 702.366 76.4139 703.254 76.4139C704.898 76.4139 705.918 77.7099 705.918 79.5939C705.918 81.5259 704.766 82.7739 703.17 82.7739C702.402 82.7739 701.706 82.3899 701.286 81.7419H701.262C701.262 81.7419 701.31 81.9579 701.31 82.2699V85.0299H700.146ZM701.274 79.6179C701.274 80.6979 701.874 81.7659 702.99 81.7659C703.95 81.7659 704.742 80.9859 704.742 79.6059C704.742 78.2859 704.034 77.4339 703.026 77.4339C702.114 77.4339 701.274 78.0819 701.274 79.6179ZM707.353 82.6299V76.5579H711.157V77.5539H708.517V82.6299H707.353Z" fill="white"/>
<path d="M612 83.8299H711.409V84.4299H612V83.8299Z" fill="white"/>
<path d="M720 77.1299L723 80.1299L726 77.1299" stroke="#25282B" stroke-width="2" stroke-linecap="round" stroke-linejoin="round"/>
<rect x="971.82" y="51.6299" width="40" height="40" rx="20" fill="#60B064"/>
<g clip-path="url(#clip4_12_4071)">
<g clip-path="url(#clip5_12_4071)">
<g clip-path="url(#clip6_12_4071)">
<path d="M999.35 63.7889C998.351 62.7832 997.162 61.9861 995.852 61.4438C994.542 60.9014 993.138 60.6248 991.72 60.63C989.825 60.6318 987.963 61.1313 986.322 62.0784C984.68 63.0255 983.316 64.387 982.367 66.0265C981.418 67.666 980.916 69.526 980.913 71.4201C980.909 73.3143 981.403 75.1762 982.346 76.8194L980.82 82.4156L986.543 80.9178C988.123 81.7963 989.898 82.2646 991.706 82.2794C994.581 82.2796 997.339 81.1449 999.38 79.1227C1001.42 77.1006 1002.58 74.3544 1002.61 71.4819C1002.6 70.0486 1002.3 68.6312 1001.75 67.3111C1001.19 65.9909 1000.37 64.794 999.35 63.7889ZM991.72 80.414C990.109 80.4151 988.528 79.9824 987.142 79.1614L986.815 78.9571L983.423 79.8558L984.322 76.5471L984.104 76.2067C982.945 74.3368 982.512 72.1069 982.888 69.9395C983.264 67.7722 984.422 65.8178 986.143 64.4468C987.864 63.0758 990.029 62.3832 992.227 62.5004C994.425 62.6175 996.504 63.5362 998.069 65.0824C999.78 66.7547 1000.76 69.0358 1000.79 71.4275C1000.77 73.8183 999.807 76.1039 998.107 77.787C996.408 79.4699 994.112 80.4142 991.72 80.414ZM996.638 73.6877C996.366 73.5516 995.044 72.898 994.799 72.8163C994.554 72.7346 994.363 72.6802 994.186 72.9524C993.92 73.3175 993.633 73.6674 993.328 74.0009C993.178 74.1915 993.014 74.2051 992.742 74.0009C991.188 73.3874 989.894 72.2572 989.077 70.8011C988.791 70.3245 989.349 70.3518 989.867 69.3306C989.905 69.257 989.925 69.1752 989.925 69.0923C989.925 69.0094 989.905 68.9277 989.867 68.854C989.867 68.7179 989.254 67.3835 989.036 66.8525C988.818 66.3215 988.6 66.4031 988.423 66.3895H987.891C987.754 66.3916 987.618 66.4231 987.494 66.4818C987.369 66.5405 987.259 66.6251 987.169 66.7299C986.864 67.027 986.625 67.3861 986.47 67.783C986.315 68.18 986.247 68.6055 986.27 69.031C986.356 70.0496 986.739 71.0205 987.374 71.8223C988.535 73.5595 990.126 74.9667 991.992 75.9071C992.971 76.4782 994.109 76.717 995.235 76.5879C995.61 76.5136 995.965 76.3612 996.277 76.1407C996.59 75.9202 996.852 75.6365 997.047 75.308C997.228 74.9072 997.285 74.4615 997.211 74.0281C997.088 73.8919 996.911 73.8239 996.638 73.6877Z" fill="white"/>
</g>
</g>
</g>
<rect x="1023.82" y="51.6299" width="40" height="40" rx="20" fill="#60B064"/>
<g clip-path="url(#clip7_12_4071)">
<g clip-path="url(#clip8_12_4071)">
<g clip-path="url(#clip9_12_4071)">
<path d="M1043.97 67.627C1043.21 67.627 1042.46 67.8678 1041.83 68.319C1041.2 68.7702 1040.71 69.4115 1040.41 70.1618C1040.12 70.9121 1040.05 71.7378 1040.2 72.5343C1040.34 73.3308 1040.71 74.0625 1041.25 74.6367C1041.79 75.211 1042.47 75.6021 1043.22 75.7605C1043.96 75.919 1044.74 75.8376 1045.44 75.5269C1046.14 75.2161 1046.74 74.6898 1047.17 74.0145C1047.59 73.3392 1047.81 72.5453 1047.81 71.7332C1047.81 70.6445 1047.41 69.6007 1046.69 68.8309C1045.97 68.0611 1044.99 67.6281 1043.97 67.627ZM1043.97 74.4707C1043.46 74.4707 1042.97 74.3101 1042.54 74.0093C1042.12 73.7085 1041.79 73.281 1041.6 72.7808C1041.41 72.2806 1041.35 71.7302 1041.45 71.1991C1041.55 70.6681 1041.8 70.1803 1042.16 69.7975C1042.51 69.4147 1042.97 69.154 1043.47 69.0483C1043.97 68.9427 1044.48 68.9969 1044.95 69.2041C1045.42 69.4113 1045.82 69.7622 1046.1 70.2124C1046.38 70.6625 1046.53 71.1918 1046.53 71.7332C1046.53 72.4592 1046.26 73.1555 1045.78 73.6689C1045.3 74.1823 1044.65 74.4707 1043.97 74.4707ZM1047.81 62.8364H1040.12C1038.93 62.8378 1037.79 63.3429 1036.95 64.2411C1036.11 65.1392 1035.64 66.3569 1035.63 67.627V75.8394C1035.64 77.1095 1036.11 78.3272 1036.95 79.2253C1037.79 80.1235 1038.93 80.6286 1040.12 80.63H1047.81C1049 80.6286 1050.14 80.1235 1050.99 79.2253C1051.83 78.3272 1052.3 77.1095 1052.3 75.8394V67.627C1052.3 66.3569 1051.83 65.1392 1050.99 64.2411C1050.14 63.3429 1049 62.8378 1047.81 62.8364ZM1051.02 75.8394C1051.02 76.747 1050.68 77.6173 1050.08 78.259C1049.48 78.9007 1048.66 79.2613 1047.81 79.2613H1040.12C1039.27 79.2613 1038.46 78.9007 1037.86 78.259C1037.25 77.6173 1036.92 76.747 1036.92 75.8394V67.627C1036.92 66.7195 1037.25 65.8491 1037.86 65.2074C1038.46 64.5657 1039.27 64.2052 1040.12 64.2052H1047.81C1048.66 64.2052 1049.48 64.5657 1050.08 65.2074C1050.68 65.8491 1051.02 66.7195 1051.02 67.627V75.8394ZM1049.1 67.2848C1049.1 67.4878 1049.04 67.6863 1048.93 67.8551C1048.83 68.0239 1048.68 68.1555 1048.5 68.2332C1048.33 68.3109 1048.13 68.3312 1047.95 68.2916C1047.76 68.252 1047.59 68.1543 1047.46 68.0107C1047.32 67.8671 1047.23 67.6842 1047.19 67.4851C1047.15 67.2859 1047.17 67.0795 1047.25 66.892C1047.32 66.7044 1047.44 66.5441 1047.6 66.4313C1047.76 66.3185 1047.95 66.2583 1048.14 66.2583C1048.39 66.2583 1048.63 66.3664 1048.82 66.5589C1049 66.7514 1049.1 67.0126 1049.1 67.2848Z" fill="white"/>
</g>
</g>
</g>
<rect x="1075.82" y="51.6299" width="40" height="40" rx="20" fill="#60B064"/>
<g clip-path="url(#clip10_12_4071)">
<g clip-path="url(#clip11_12_4071)">
<g clip-path="url(#clip12_12_4071)">
<path d="M1103.21 64.6221C1103.13 64.5449 1103.03 64.4936 1102.92 64.4737C1102.81 64.4537 1102.69 64.4659 1102.59 64.5089L1088.74 70.2257C1088.55 70.3062 1088.38 70.4517 1088.27 70.6405C1088.16 70.8292 1088.11 71.0509 1088.13 71.2722C1088.15 71.4934 1088.23 71.7022 1088.37 71.8672C1088.51 72.0322 1088.7 72.1445 1088.91 72.187L1092.5 72.9301V77.1505C1092.5 77.3804 1092.56 77.6052 1092.68 77.7957C1092.8 77.9864 1092.98 78.134 1093.18 78.2195C1093.38 78.3065 1093.6 78.3273 1093.82 78.2794C1094.03 78.2315 1094.22 78.1169 1094.38 77.9506L1096.11 76.0577L1098.85 78.5921C1099.05 78.7774 1099.3 78.88 1099.57 78.8804C1099.68 78.8803 1099.8 78.8611 1099.91 78.8235C1100.09 78.7631 1100.25 78.654 1100.38 78.5069C1100.51 78.3598 1100.6 78.1799 1100.64 77.9852L1103.41 65.2571C1103.44 65.1423 1103.43 65.0226 1103.4 64.9107C1103.36 64.7988 1103.3 64.6991 1103.21 64.6221ZM1099.04 67.217L1092.92 71.8417L1089.53 71.1404L1099.04 67.217ZM1093.59 77.1505V73.7281L1095.28 75.2951L1093.59 77.1505ZM1099.57 77.7271L1093.92 72.5012L1102.05 66.3535L1099.57 77.7271Z" fill="white"/>
</g>
</g>
</g>
<rect x="1182.82" y="30.6299" width="167.02" height="60" rx="11" fill="#60B064"/>
<path d="M1233.6 53.2859C1233.6 50.8259 1235.5 48.9059 1238.09 48.9059C1240.68 48.9059 1242.58 50.8259 1242.58 53.2859C1242.58 55.8059 1240.68 57.7739 1238.09 57.7739C1235.5 57.7739 1233.6 55.8059 1233.6 53.2859ZM1235.78 53.2859C1235.78 54.7499 1236.81 55.8539 1238.09 55.8539C1239.38 55.8539 1240.41 54.7499 1240.41 53.2859C1240.41 51.8819 1239.38 50.8259 1238.09 50.8259C1236.81 50.8259 1235.78 51.8819 1235.78 53.2859ZM1244.04 53.9339C1244.04 51.4139 1245.07 50.1299 1247.48 49.3019L1249.48 48.6299L1250.07 50.2979L1247.74 51.0419C1246.95 51.3059 1246.11 51.6419 1246.08 52.5299H1246.1C1246.63 52.0859 1247.37 51.9419 1247.91 51.9419C1249.57 51.9419 1250.58 53.1179 1250.58 54.7739C1250.58 56.4779 1249.34 57.7739 1247.38 57.7739C1245.15 57.7739 1244.04 56.2019 1244.04 53.9339ZM1246.1 54.8099C1246.1 55.6019 1246.65 56.0819 1247.3 56.0819C1247.95 56.0819 1248.5 55.6019 1248.5 54.8099C1248.5 54.0059 1247.95 53.5019 1247.3 53.5019C1246.65 53.5019 1246.1 54.0059 1246.1 54.8099ZM1252.26 60.0299V51.4499H1254.13V51.7619C1254.13 51.9659 1254.11 52.1579 1254.11 52.1579H1254.13C1254.55 51.5939 1255.26 51.3059 1256 51.3059C1257.68 51.3059 1258.79 52.6259 1258.79 54.5459C1258.79 56.5019 1257.55 57.7739 1255.91 57.7739C1255.33 57.7739 1254.78 57.5699 1254.33 57.1859H1254.31C1254.31 57.1859 1254.33 57.4019 1254.33 57.7139V60.0299H1252.26ZM1254.27 54.5819C1254.27 55.3259 1254.67 56.0579 1255.49 56.0579C1256.13 56.0579 1256.7 55.5299 1256.7 54.5819C1256.7 53.6579 1256.21 53.0579 1255.49 53.0579C1254.86 53.0579 1254.27 53.5139 1254.27 54.5819ZM1260.01 55.8899C1260.01 54.2339 1261.98 53.7779 1263.5 53.7779H1263.68V53.6699C1263.68 53.1539 1263.26 52.9859 1262.8 52.9859C1262.2 52.9859 1261.59 53.2499 1261.1 53.5739L1260.38 52.1099C1260.91 51.7019 1261.99 51.3059 1263 51.3059C1264.7 51.3059 1265.76 52.2539 1265.76 53.8259V57.6299H1263.86V57.2579C1263.86 57.0539 1263.88 56.8739 1263.88 56.8739H1263.86C1263.45 57.4499 1262.73 57.7739 1262.02 57.7739C1260.84 57.7739 1260.01 56.9579 1260.01 55.8899ZM1262.06 55.6979C1262.06 55.9859 1262.26 56.2259 1262.65 56.2259C1263.25 56.2259 1263.7 55.6379 1263.7 55.1339V54.9659H1263.51C1262.88 54.9659 1262.06 55.1339 1262.06 55.6979ZM1269.03 57.6299V53.1899H1267.16V51.4499H1272.99V53.1899H1271.11V57.6299H1269.03ZM1274.46 57.6299V51.4499H1276.54V53.6339H1278.45V51.4499H1280.52V57.6299H1278.45V55.3739H1276.54V57.6299H1274.46ZM1288.68 57.6299V51.4499H1290.76V57.6299H1288.68ZM1282.51 57.6299V51.4499H1284.59V53.3819H1285.53C1287.25 53.3819 1287.97 54.2699 1287.97 55.5179C1287.97 56.7779 1287.25 57.6299 1285.53 57.6299H1282.51ZM1284.59 56.2739H1285.14C1285.63 56.2739 1285.9 55.9379 1285.9 55.5059C1285.9 55.0739 1285.63 54.7259 1285.11 54.7259H1284.59V56.2739ZM1295.77 51.0179C1294.55 51.0179 1293.49 50.3579 1293.49 49.1819V49.0499H1295.03V49.1939C1295.03 49.6859 1295.41 49.9019 1295.77 49.9019C1296.12 49.9019 1296.52 49.6859 1296.52 49.1939V49.0499H1298.04V49.1819C1298.04 50.3579 1296.98 51.0179 1295.77 51.0179ZM1292.75 57.6299V51.4499H1294.7V54.1739C1294.7 54.3899 1294.69 54.6299 1294.68 54.7859H1294.7C1294.81 54.5339 1294.93 54.3539 1295.04 54.1739L1296.76 51.4499H1298.77V57.6299H1296.82V54.9299C1296.82 54.7859 1296.82 54.5459 1296.84 54.3059H1296.82C1296.71 54.5579 1296.58 54.7499 1296.48 54.9179L1294.76 57.6299H1292.75ZM1243.8 71.8619L1244.62 70.5659C1245.01 70.9139 1245.62 71.2139 1246.11 71.2139C1246.69 71.2139 1246.86 70.9619 1246.86 70.6739C1246.86 70.3739 1246.75 70.1579 1246.18 70.1579H1245.43V68.7899H1246.05C1246.38 68.7899 1246.68 68.6939 1246.68 68.3099C1246.68 68.0459 1246.56 67.8179 1246.03 67.8179C1245.69 67.8179 1245.21 67.9019 1244.56 68.2859L1243.96 67.0019C1244.54 66.6059 1245.33 66.3059 1246.46 66.3059C1247.73 66.3059 1248.74 66.9539 1248.74 68.0219C1248.74 68.7899 1248.34 69.2099 1247.97 69.4139V69.4379C1248.44 69.6539 1248.93 70.0859 1248.93 70.8059C1248.93 72.1139 1247.84 72.7739 1246.38 72.7739C1245.46 72.7739 1244.47 72.4619 1243.8 71.8619ZM1250.58 72.6299V66.4499H1253.96C1255.19 66.4499 1256.06 67.0019 1256.06 68.0699C1256.06 68.5859 1255.8 69.1379 1255.34 69.4139V69.4259C1256.04 69.6419 1256.31 70.2539 1256.31 70.7939C1256.31 72.1499 1255.18 72.6299 1253.96 72.6299H1250.58ZM1252.66 68.8859H1253.44C1253.82 68.8859 1253.99 68.5979 1253.99 68.2739C1253.99 67.9859 1253.82 67.7339 1253.42 67.7339H1252.66V68.8859ZM1252.66 71.3339H1253.57C1254.02 71.3339 1254.23 71.0339 1254.23 70.7219C1254.23 70.3859 1254.03 70.0979 1253.58 70.0979H1252.66V71.3339ZM1257.63 69.5579C1257.63 67.6139 1259.19 66.3059 1261.12 66.3059C1263.08 66.3059 1264.64 67.6139 1264.64 69.5579C1264.64 71.4899 1263.08 72.7739 1261.14 72.7739C1259.19 72.7739 1257.63 71.4899 1257.63 69.5579ZM1259.73 69.5579C1259.73 70.4819 1260.38 71.0459 1261.14 71.0459C1261.89 71.0459 1262.54 70.4819 1262.54 69.5579C1262.54 68.6219 1261.89 68.0339 1261.14 68.0339C1260.38 68.0339 1259.73 68.6219 1259.73 69.5579ZM1266.28 72.6299V66.4499H1268.36V68.6339H1270.26V66.4499H1272.34V72.6299H1270.26V70.3739H1268.36V72.6299H1266.28ZM1273.98 69.5579C1273.98 67.6139 1275.54 66.3059 1277.48 66.3059C1279.43 66.3059 1280.99 67.6139 1280.99 69.5579C1280.99 71.4899 1279.43 72.7739 1277.49 72.7739C1275.54 72.7739 1273.98 71.4899 1273.98 69.5579ZM1276.08 69.5579C1276.08 70.4819 1276.73 71.0459 1277.49 71.0459C1278.24 71.0459 1278.89 70.4819 1278.89 69.5579C1278.89 68.6219 1278.24 68.0339 1277.49 68.0339C1276.73 68.0339 1276.08 68.6219 1276.08 69.5579ZM1282.63 72.6299V66.4499H1284.71V68.6219H1285.3L1286.52 66.4499H1288.78L1286.96 69.3899V69.4139L1289.03 72.6299H1286.66L1285.36 70.3619H1284.71V72.6299H1282.63Z" fill="white"/>
<rect x="1358.34" y="30.1299" width="136.21" height="61" rx="9.5" stroke="#60B064"/>
<path d="M1389.45 57.6299V49.0499H1393.02C1394.68 49.0499 1395.81 50.2739 1395.81 52.0019C1395.81 53.7299 1394.68 54.9779 1393.02 54.9779H1391.55V57.6299H1389.45ZM1391.55 53.1779H1392.58C1393.32 53.1779 1393.68 52.6859 1393.68 52.0019C1393.68 51.3179 1393.32 50.8499 1392.62 50.8499H1391.55V53.1779ZM1396.76 55.8899C1396.76 54.2339 1398.73 53.7779 1400.26 53.7779H1400.44V53.6699C1400.44 53.1539 1400.02 52.9859 1399.56 52.9859C1398.96 52.9859 1398.35 53.2499 1397.86 53.5739L1397.14 52.1099C1397.66 51.7019 1398.74 51.3059 1399.75 51.3059C1401.46 51.3059 1402.51 52.2539 1402.51 53.8259V57.6299H1400.62V57.2579C1400.62 57.0539 1400.64 56.8739 1400.64 56.8739H1400.62C1400.21 57.4499 1399.49 57.7739 1398.78 57.7739C1397.59 57.7739 1396.76 56.9579 1396.76 55.8899ZM1398.82 55.6979C1398.82 55.9859 1399.02 56.2259 1399.4 56.2259C1400 56.2259 1400.46 55.6379 1400.46 55.1339V54.9659H1400.27C1399.63 54.9659 1398.82 55.1339 1398.82 55.6979ZM1404.08 54.5339C1404.08 52.8779 1405.3 51.3059 1407.52 51.3059C1408.39 51.3059 1409.37 51.5819 1409.98 52.2419L1409.11 53.6339C1408.75 53.2859 1408.2 53.0339 1407.66 53.0339C1406.67 53.0339 1406.18 53.7779 1406.18 54.5099C1406.18 55.2419 1406.68 56.0459 1407.73 56.0459C1408.33 56.0459 1408.98 55.6859 1409.42 55.3019L1410.18 56.7539C1409.56 57.3779 1408.56 57.7739 1407.52 57.7739C1405.32 57.7739 1404.08 56.2379 1404.08 54.5339ZM1411.17 54.5339C1411.17 52.8779 1412.4 51.3059 1414.62 51.3059C1415.48 51.3059 1416.46 51.5819 1417.08 52.2419L1416.2 53.6339C1415.84 53.2859 1415.29 53.0339 1414.75 53.0339C1413.76 53.0339 1413.27 53.7779 1413.27 54.5099C1413.27 55.2419 1413.78 56.0459 1414.82 56.0459C1415.42 56.0459 1416.07 55.6859 1416.51 55.3019L1417.27 56.7539C1416.66 57.3779 1415.65 57.7739 1414.62 57.7739C1412.41 57.7739 1411.17 56.2379 1411.17 54.5339ZM1420.52 55.7339C1419.52 55.7339 1418.42 55.2299 1418.42 53.6099V51.4499H1420.46V53.2139C1420.46 53.7419 1420.73 54.0419 1421.25 54.0419C1421.67 54.0419 1421.98 53.8859 1422.19 53.7419V51.4499H1424.26V57.6299H1422.19V55.6979C1422.19 55.5659 1422.2 55.4099 1422.2 55.4099H1422.17C1421.83 55.5659 1421.27 55.7339 1420.52 55.7339ZM1426.26 57.6299V51.4499H1428.21V54.1739C1428.21 54.3899 1428.2 54.6299 1428.19 54.7859H1428.21C1428.32 54.5339 1428.44 54.3539 1428.55 54.1739L1430.26 51.4499H1432.28V57.6299H1430.32V54.9299C1430.32 54.7859 1430.32 54.5459 1430.35 54.3059H1430.32C1430.22 54.5579 1430.08 54.7499 1429.99 54.9179L1428.27 57.6299H1426.26ZM1435.63 57.6299V53.1899H1433.76V51.4499H1439.59V53.1899H1437.71V57.6299H1435.63ZM1440.55 55.8899C1440.55 54.2339 1442.51 53.7779 1444.04 53.7779H1444.22V53.6699C1444.22 53.1539 1443.8 52.9859 1443.34 52.9859C1442.74 52.9859 1442.13 53.2499 1441.64 53.5739L1440.92 52.1099C1441.45 51.7019 1442.53 51.3059 1443.53 51.3059C1445.24 51.3059 1446.29 52.2539 1446.29 53.8259V57.6299H1444.4V57.2579C1444.4 57.0539 1444.42 56.8739 1444.42 56.8739H1444.4C1443.99 57.4499 1443.27 57.7739 1442.56 57.7739C1441.37 57.7739 1440.55 56.9579 1440.55 55.8899ZM1442.6 55.6979C1442.6 55.9859 1442.8 56.2259 1443.19 56.2259C1443.79 56.2259 1444.24 55.6379 1444.24 55.1339V54.9659H1444.05C1443.41 54.9659 1442.6 55.1339 1442.6 55.6979ZM1449.57 57.6299V53.1899H1447.7V51.4499H1453.53V53.1899H1451.64V57.6299H1449.57ZM1455 57.6299V51.4499H1457.08V53.3819H1458.08C1459.81 53.3819 1460.53 54.2699 1460.53 55.5179C1460.53 56.7779 1459.81 57.6299 1458.08 57.6299H1455ZM1457.08 56.2739H1457.7C1458.19 56.2739 1458.46 55.9379 1458.46 55.5059C1458.46 55.0739 1458.19 54.7259 1457.66 54.7259H1457.08V56.2739ZM1392.42 69.5339C1392.42 67.8779 1393.64 66.3059 1395.86 66.3059C1396.73 66.3059 1397.71 66.5819 1398.32 67.2419L1397.45 68.6339C1397.09 68.2859 1396.53 68.0339 1395.99 68.0339C1395.01 68.0339 1394.52 68.7779 1394.52 69.5099C1394.52 70.2419 1395.02 71.0459 1396.07 71.0459C1396.67 71.0459 1397.31 70.6859 1397.76 70.3019L1398.51 71.7539C1397.9 72.3779 1396.89 72.7739 1395.86 72.7739C1393.65 72.7739 1392.42 71.2379 1392.42 69.5339ZM1401.34 72.6299V68.1899H1399.47V66.4499H1405.3V68.1899H1403.42V72.6299H1401.34ZM1406.36 69.5579C1406.36 67.6139 1407.92 66.3059 1409.85 66.3059C1411.8 66.3059 1413.36 67.6139 1413.36 69.5579C1413.36 71.4899 1411.8 72.7739 1409.86 72.7739C1407.92 72.7739 1406.36 71.4899 1406.36 69.5579ZM1408.46 69.5579C1408.46 70.4819 1409.1 71.0459 1409.86 71.0459C1410.62 71.0459 1411.26 70.4819 1411.26 69.5579C1411.26 68.6219 1410.62 68.0339 1409.86 68.0339C1409.1 68.0339 1408.46 68.6219 1408.46 69.5579ZM1415 72.6299V66.4499H1416.96V69.1739C1416.96 69.3899 1416.95 69.6299 1416.94 69.7859H1416.96C1417.07 69.5339 1417.19 69.3539 1417.3 69.1739L1419.01 66.4499H1421.03V72.6299H1419.07V69.9299C1419.07 69.7859 1419.07 69.5459 1419.1 69.3059H1419.07C1418.96 69.5579 1418.83 69.7499 1418.74 69.9179L1417.02 72.6299H1415ZM1422.76 72.6299L1423.35 66.4499H1425.75L1426.66 69.1619C1426.77 69.4739 1426.9 69.8819 1426.9 69.8819H1426.91C1426.91 69.8819 1427.05 69.4739 1427.16 69.1619L1428.07 66.4499H1430.46L1431.05 72.6299H1429.06L1428.91 69.7859C1428.9 69.3059 1428.93 68.7299 1428.93 68.7299H1428.9C1428.9 68.7299 1428.72 69.2579 1428.57 69.6419L1427.75 71.8019H1426.07L1425.25 69.6419C1425.12 69.2459 1424.89 68.7299 1424.89 68.7299H1424.87C1424.87 68.7299 1424.91 69.3059 1424.88 69.7859L1424.74 72.6299H1422.76ZM1432.43 69.5579C1432.43 67.6139 1433.99 66.3059 1435.92 66.3059C1437.87 66.3059 1439.43 67.6139 1439.43 69.5579C1439.43 71.4899 1437.87 72.7739 1435.93 72.7739C1433.99 72.7739 1432.43 71.4899 1432.43 69.5579ZM1434.53 69.5579C1434.53 70.4819 1435.17 71.0459 1435.93 71.0459C1436.69 71.0459 1437.33 70.4819 1437.33 69.5579C1437.33 68.6219 1436.69 68.0339 1435.93 68.0339C1435.17 68.0339 1434.53 68.6219 1434.53 69.5579ZM1440.72 69.5339C1440.72 67.8779 1441.95 66.3059 1444.17 66.3059C1445.03 66.3059 1446.02 66.5819 1446.63 67.2419L1445.75 68.6339C1445.39 68.2859 1444.84 68.0339 1444.3 68.0339C1443.32 68.0339 1442.82 68.7779 1442.82 69.5099C1442.82 70.2419 1443.33 71.0459 1444.37 71.0459C1444.97 71.0459 1445.62 70.6859 1446.06 70.3019L1446.82 71.7539C1446.21 72.3779 1445.2 72.7739 1444.17 72.7739C1441.96 72.7739 1440.72 71.2379 1440.72 69.5339ZM1449.65 72.6299V68.1899H1447.78V66.4499H1453.61V68.1899H1451.73V72.6299H1449.65ZM1455.08 72.6299V66.4499H1457.16V68.3819H1458.17C1459.89 68.3819 1460.61 69.2699 1460.61 70.5179C1460.61 71.7779 1459.89 72.6299 1458.17 72.6299H1455.08ZM1457.16 71.2739H1457.78C1458.27 71.2739 1458.54 70.9379 1458.54 70.5059C1458.54 70.0739 1458.27 69.7259 1457.75 69.7259H1457.16V71.2739Z" fill="#60B064"/>
<rect x="1503.55" y="38.6299" width="39.95" height="44" rx="19.975" stroke="white"/>
<path d="M1521.74 66.3099C1517.62 66.3099 1514.27 62.9699 1514.27 58.8399C1514.27 54.7099 1517.61 51.3699 1521.74 51.3699C1525.86 51.3699 1529.21 54.7099 1529.21 58.8399C1529.21 62.9699 1525.86 66.3099 1521.74 66.3099Z" stroke="white" stroke-width="1.5" stroke-linecap="round" stroke-linejoin="round"/>
<path d="M1530.27 67.3799L1527.02 64.1299" stroke="white" stroke-width="1.5" stroke-linecap="round" stroke-linejoin="round"/>
<path d="M395.488 130V118.704H401.712V120.08H397.072V130H395.488ZM400.383 130.08V128.688C401.567 128.512 402.207 127.328 402.207 124.4V121.904H407.631V130H406.079V123.184H403.695V124.4C403.695 128.064 402.767 129.952 400.383 130.08ZM409.356 127.792C409.356 125.248 412.508 124.96 414.188 124.96H414.604V124.8C414.604 123.472 413.836 123.024 412.828 123.024C412.028 123.024 411.212 123.344 410.556 123.808L409.932 122.672C410.588 122.128 411.82 121.712 412.956 121.712C414.988 121.712 416.156 122.832 416.156 124.88V130H414.7V129.184C414.7 128.816 414.748 128.544 414.748 128.544H414.716C414.252 129.472 413.26 130.192 412.06 130.192C410.652 130.192 409.356 129.312 409.356 127.792ZM410.908 127.664C410.908 128.304 411.42 128.96 412.428 128.96C413.788 128.96 414.604 127.584 414.604 126.384V126.08H414.204C413.052 126.08 410.908 126.176 410.908 127.664ZM418.45 130V121.904H421.794C423.426 121.904 424.498 122.624 424.498 123.984C424.498 124.768 424.082 125.44 423.346 125.76V125.776C424.354 126.016 424.882 126.8 424.882 127.696C424.882 129.2 423.666 130 421.906 130H418.45ZM420.002 125.328H421.522C422.45 125.328 422.914 124.848 422.914 124.096C422.914 123.36 422.45 122.976 421.474 122.976H420.002V125.328ZM420.002 128.912H421.666C422.786 128.912 423.314 128.4 423.314 127.648C423.314 126.848 422.722 126.368 421.65 126.368H420.002V128.912ZM426.763 130V121.904H428.315V125.2H432.411V121.904H433.963V130H432.411V126.528H428.315V130H426.763ZM435.684 127.792C435.684 125.248 438.836 124.96 440.516 124.96H440.932V124.8C440.932 123.472 440.164 123.024 439.156 123.024C438.356 123.024 437.54 123.344 436.884 123.808L436.26 122.672C436.916 122.128 438.148 121.712 439.284 121.712C441.316 121.712 442.484 122.832 442.484 124.88V130H441.028V129.184C441.028 128.816 441.076 128.544 441.076 128.544H441.044C440.58 129.472 439.588 130.192 438.388 130.192C436.98 130.192 435.684 129.312 435.684 127.792ZM437.236 127.664C437.236 128.304 437.748 128.96 438.756 128.96C440.116 128.96 440.932 127.584 440.932 126.384V126.08H440.532C439.38 126.08 437.236 126.176 437.236 127.664ZM443.962 130L445.834 127.312C446.01 127.024 446.202 126.816 446.202 126.816V126.8C445.274 126.544 444.442 125.68 444.442 124.448C444.442 122.784 445.626 121.904 447.338 121.904H450.57V130H449.018V127.072H447.658L445.674 130H443.962ZM447.674 125.936H449.018V122.976H447.722C446.682 122.976 446.01 123.392 446.01 124.432C446.01 125.44 446.73 125.936 447.674 125.936Z" fill="white"/>
<path d="M553.488 130V118.704H562.384V130H560.8V120.08H555.072V130H553.488ZM564.981 133.2V121.904H566.421V122.624C566.421 122.96 566.373 123.232 566.373 123.232H566.405C566.917 122.256 567.941 121.712 569.125 121.712C571.317 121.712 572.677 123.44 572.677 125.952C572.677 128.528 571.141 130.192 569.013 130.192C567.989 130.192 567.061 129.68 566.501 128.816H566.469C566.469 128.816 566.533 129.104 566.533 129.52V133.2H564.981ZM566.485 125.984C566.485 127.424 567.285 128.848 568.773 128.848C570.053 128.848 571.109 127.808 571.109 125.968C571.109 124.208 570.165 123.072 568.821 123.072C567.605 123.072 566.485 123.936 566.485 125.984ZM574.063 125.936C574.063 123.488 576.015 121.712 578.415 121.712C580.831 121.712 582.783 123.488 582.783 125.936C582.783 128.4 580.831 130.192 578.431 130.192C576.015 130.192 574.063 128.4 574.063 125.936ZM575.647 125.936C575.647 127.632 576.895 128.848 578.431 128.848C579.951 128.848 581.215 127.632 581.215 125.936C581.215 124.256 579.951 123.056 578.431 123.056C576.895 123.056 575.647 124.256 575.647 125.936ZM584.125 125.952C584.125 123.376 585.885 121.712 588.189 121.712C590.477 121.712 591.693 123.424 591.693 125.504C591.693 125.712 591.661 125.936 591.629 126.16H585.741C585.821 127.904 587.069 128.848 588.525 128.848C589.389 128.848 590.269 128.48 590.909 127.904L591.565 129.04C590.781 129.76 589.549 130.192 588.429 130.192C585.885 130.192 584.125 128.352 584.125 125.952ZM585.789 125.04H590.125C590.077 123.648 589.213 122.912 588.157 122.912C586.957 122.912 586.013 123.696 585.789 125.04ZM593.559 130V121.904H595.111V125.168H596.247L598.455 121.904H600.215L597.511 125.76V125.792L600.535 130H598.695L596.279 126.496H595.111V130H593.559ZM603.871 130V123.232H601.055V121.904H608.239V123.232H605.407V130H603.871ZM617.091 130V121.904H618.643V130H617.091ZM609.763 130V121.904H611.315V124.832H612.899C614.579 124.832 615.843 125.6 615.843 127.44C615.843 128.96 614.915 130 612.883 130H609.763ZM611.315 128.88H612.674C613.795 128.88 614.275 128.272 614.275 127.424C614.275 126.56 613.779 125.952 612.659 125.952H611.315V128.88Z" fill="white"/>
<path d="M721.488 130V118.704H723.072V123.664H728.944V118.704H730.512V130H728.944V125.04H723.072V130H721.488ZM732.419 127.792C732.419 125.248 735.571 124.96 737.251 124.96H737.667V124.8C737.667 123.472 736.899 123.024 735.891 123.024C735.091 123.024 734.275 123.344 733.619 123.808L732.995 122.672C733.651 122.128 734.883 121.712 736.019 121.712C738.051 121.712 739.219 122.832 739.219 124.88V130H737.763V129.184C737.763 128.816 737.811 128.544 737.811 128.544H737.779C737.315 129.472 736.323 130.192 735.123 130.192C733.715 130.192 732.419 129.312 732.419 127.792ZM733.971 127.664C733.971 128.304 734.483 128.96 735.491 128.96C736.851 128.96 737.667 127.584 737.667 126.384V126.08H737.267C736.115 126.08 733.971 126.176 733.971 127.664ZM741.513 130V121.904H743.001V128.656H745.993V121.904H747.497V128.656H750.489V121.904H751.977V130H741.513ZM754.372 130V121.904H755.86V126.736C755.86 127.168 755.828 127.744 755.812 127.824H755.844C755.908 127.68 756.292 127.12 756.564 126.736L760.052 121.904H761.556V130H760.052V125.168C760.052 124.784 760.1 124.224 760.1 124.096H760.068C760.02 124.24 759.62 124.784 759.364 125.168L755.86 130H754.372ZM767.934 133.2V121.904H769.374V122.624C769.374 122.96 769.326 123.232 769.326 123.232H769.358C769.87 122.256 770.894 121.712 772.078 121.712C774.27 121.712 775.63 123.44 775.63 125.952C775.63 128.528 774.094 130.192 771.966 130.192C770.942 130.192 770.014 129.68 769.454 128.816H769.422C769.422 128.816 769.486 129.104 769.486 129.52V133.2H767.934ZM769.438 125.984C769.438 127.424 770.238 128.848 771.726 128.848C773.006 128.848 774.062 127.808 774.062 125.968C774.062 124.208 773.118 123.072 771.774 123.072C770.558 123.072 769.438 123.936 769.438 125.984ZM776.872 127.792C776.872 125.248 780.024 124.96 781.704 124.96H782.12V124.8C782.12 123.472 781.352 123.024 780.344 123.024C779.544 123.024 778.728 123.344 778.072 123.808L777.448 122.672C778.104 122.128 779.336 121.712 780.472 121.712C782.504 121.712 783.672 122.832 783.672 124.88V130H782.216V129.184C782.216 128.816 782.264 128.544 782.264 128.544H782.232C781.768 129.472 780.776 130.192 779.576 130.192C778.168 130.192 776.872 129.312 776.872 127.792ZM778.424 127.664C778.424 128.304 778.936 128.96 779.944 128.96C781.304 128.96 782.12 127.584 782.12 126.384V126.08H781.72C780.568 126.08 778.424 126.176 778.424 127.664ZM785.614 125.344C785.614 122.448 786.446 120.688 789.262 119.504L792.158 118.256L792.67 119.536L789.566 120.832C787.95 121.568 787.182 122.512 787.07 124.064H787.102C787.822 122.976 788.894 122.624 789.966 122.624C791.998 122.624 793.406 124.064 793.406 126.352C793.406 128.592 791.87 130.192 789.582 130.192C786.846 130.192 785.614 128.144 785.614 125.344ZM787.23 126.352C787.23 127.952 788.27 128.88 789.518 128.88C790.798 128.88 791.838 127.952 791.838 126.384C791.838 124.8 790.798 123.856 789.582 123.856C788.206 123.856 787.23 124.928 787.23 126.352ZM794.813 125.936C794.813 123.488 796.765 121.712 799.165 121.712C801.581 121.712 803.533 123.488 803.533 125.936C803.533 128.4 801.581 130.192 799.181 130.192C796.765 130.192 794.813 128.4 794.813 125.936ZM796.397 125.936C796.397 127.632 797.645 128.848 799.181 128.848C800.701 128.848 801.965 127.632 801.965 125.936C801.965 124.256 800.701 123.056 799.181 123.056C797.645 123.056 796.397 124.256 796.397 125.936ZM807.09 130V123.232H804.274V121.904H811.458V123.232H808.626V130H807.09ZM820.309 130V121.904H821.861V130H820.309ZM812.981 130V121.904H814.533V124.832H816.117C817.797 124.832 819.061 125.6 819.061 127.44C819.061 128.96 818.133 130 816.101 130H812.981ZM814.533 128.88H815.893C817.013 128.88 817.493 128.272 817.493 127.424C817.493 126.56 816.997 125.952 815.877 125.952H814.533V128.88Z" fill="white"/>
<path d="M924.432 128.656L925.312 127.584C925.904 128.224 926.912 128.768 927.968 128.768C929.344 128.768 930.32 128 930.32 126.72C930.32 125.536 929.44 124.848 928.208 124.848H926.816V123.536H927.936C929.072 123.536 929.968 122.784 929.968 121.712C929.968 120.736 929.36 119.904 927.968 119.904C927.168 119.904 926.272 120.16 925.44 120.864L924.768 119.68C925.968 118.688 927.232 118.512 928.192 118.512C930.128 118.512 931.584 119.632 931.584 121.52C931.584 122.896 930.752 123.664 929.952 124.064V124.096C931.136 124.432 931.936 125.408 931.936 126.8C931.936 128.896 930.224 130.192 928.096 130.192C926.736 130.192 925.312 129.632 924.432 128.656ZM933.262 127.792C933.262 125.248 936.414 124.96 938.094 124.96H938.51V124.8C938.51 123.472 937.742 123.024 936.734 123.024C935.934 123.024 935.118 123.344 934.462 123.808L933.838 122.672C934.494 122.128 935.726 121.712 936.862 121.712C938.894 121.712 940.062 122.832 940.062 124.88V130H938.606V129.184C938.606 128.816 938.654 128.544 938.654 128.544H938.622C938.158 129.472 937.166 130.192 935.966 130.192C934.558 130.192 933.262 129.312 933.262 127.792ZM934.814 127.664C934.814 128.304 935.326 128.96 936.334 128.96C937.694 128.96 938.51 127.584 938.51 126.384V126.08H938.11C936.958 126.08 934.814 126.176 934.814 127.664ZM942.356 130V121.904H943.908V125.168H945.044L947.252 121.904H949.012L946.308 125.76V125.792L949.332 130H947.492L945.076 126.496H943.908V130H942.356ZM949.965 127.792C949.965 125.248 953.118 124.96 954.798 124.96H955.214V124.8C955.214 123.472 954.446 123.024 953.438 123.024C952.638 123.024 951.822 123.344 951.166 123.808L950.542 122.672C951.198 122.128 952.43 121.712 953.566 121.712C955.598 121.712 956.766 122.832 956.766 124.88V130H955.31V129.184C955.31 128.816 955.358 128.544 955.358 128.544H955.326C954.862 129.472 953.87 130.192 952.67 130.192C951.262 130.192 949.965 129.312 949.965 127.792ZM951.518 127.664C951.518 128.304 952.03 128.96 953.038 128.96C954.398 128.96 955.214 127.584 955.214 126.384V126.08H954.814C953.661 126.08 951.518 126.176 951.518 127.664ZM958.275 129.008L958.995 127.984C959.363 128.368 960.131 128.944 961.107 128.944C962.035 128.944 962.787 128.496 962.787 127.616C962.787 126.832 962.259 126.384 961.123 126.384H960.131V125.264H960.979C961.891 125.264 962.515 124.912 962.515 124.096C962.515 123.344 961.971 122.928 961.075 122.928C960.371 122.928 959.731 123.168 959.107 123.632L958.531 122.592C959.155 122.128 960.067 121.712 961.347 121.712C962.883 121.712 964.083 122.464 964.083 123.904C964.083 124.912 963.539 125.472 962.899 125.744V125.776C963.715 126.032 964.355 126.64 964.355 127.68C964.355 129.344 962.915 130.192 961.251 130.192C960.003 130.192 958.947 129.648 958.275 129.008ZM968.439 127.184C966.711 127.184 965.719 126.272 965.719 124.544V121.904H967.239V124.32C967.239 125.12 967.527 125.84 968.855 125.84C969.655 125.84 970.311 125.504 970.647 125.264V121.904H972.199V130H970.647V127.072C970.647 126.848 970.663 126.592 970.663 126.592H970.631C970.119 126.912 969.239 127.184 968.439 127.184ZM974.606 130V121.904H976.094V126.736C976.094 127.168 976.062 127.744 976.046 127.824H976.078C976.142 127.68 976.526 127.12 976.798 126.736L980.286 121.904H981.79V130H980.286V125.168C980.286 124.784 980.334 124.224 980.334 124.096H980.302C980.254 124.24 979.854 124.784 979.598 125.168L976.094 130H974.606ZM984.169 130V121.904H985.721V125.168H986.857L989.065 121.904H990.825L988.121 125.76V125.792L991.145 130H989.305L986.889 126.496H985.721V130H984.169ZM992.128 131.68C992.128 131.68 992.576 132.032 993.056 132.032C993.696 132.032 994.224 131.568 994.528 130.832L994.928 129.904L991.536 121.904H993.28L995.312 127.2C995.472 127.6 995.616 128.176 995.616 128.176H995.648C995.648 128.176 995.776 127.632 995.92 127.216L997.888 121.904H999.568L995.76 131.456C995.28 132.72 994.272 133.36 993.136 133.36C992.24 133.36 991.584 132.864 991.584 132.864L992.128 131.68Z" fill="white"/>
<path d="M1100.78 124.272C1100.78 121.024 1103.33 118.512 1106.59 118.512C1109.86 118.512 1112.38 121.024 1112.38 124.272C1112.38 127.6 1109.86 130.192 1106.59 130.192C1103.33 130.192 1100.78 127.6 1100.78 124.272ZM1102.42 124.272C1102.42 126.8 1104.27 128.736 1106.59 128.736C1108.9 128.736 1110.75 126.8 1110.75 124.272C1110.75 121.824 1108.9 119.952 1106.59 119.952C1104.27 119.952 1102.42 121.824 1102.42 124.272ZM1116.32 130V123.232H1113.51V121.904H1120.69V123.232H1117.86V130H1116.32ZM1121.43 129.008L1122.15 127.984C1122.52 128.368 1123.29 128.944 1124.26 128.944C1125.19 128.944 1125.94 128.496 1125.94 127.616C1125.94 126.832 1125.42 126.384 1124.28 126.384H1123.29V125.264H1124.14C1125.05 125.264 1125.67 124.912 1125.67 124.096C1125.67 123.344 1125.13 122.928 1124.23 122.928C1123.53 122.928 1122.89 123.168 1122.26 123.632L1121.69 122.592C1122.31 122.128 1123.22 121.712 1124.5 121.712C1126.04 121.712 1127.24 122.464 1127.24 123.904C1127.24 124.912 1126.7 125.472 1126.06 125.744V125.776C1126.87 126.032 1127.51 126.64 1127.51 127.68C1127.51 129.344 1126.07 130.192 1124.41 130.192C1123.16 130.192 1122.1 129.648 1121.43 129.008ZM1136.72 130V121.904H1138.27V130H1136.72ZM1129.39 130V121.904H1130.94V124.832H1132.52C1134.2 124.832 1135.47 125.6 1135.47 127.44C1135.47 128.96 1134.54 130 1132.51 130H1129.39ZM1130.94 128.88H1132.3C1133.42 128.88 1133.9 128.272 1133.9 127.424C1133.9 126.56 1133.4 125.952 1132.28 125.952H1130.94V128.88ZM1140.67 130V121.904H1144.01C1145.64 121.904 1146.72 122.624 1146.72 123.984C1146.72 124.768 1146.3 125.44 1145.56 125.76V125.776C1146.57 126.016 1147.1 126.8 1147.1 127.696C1147.1 129.2 1145.88 130 1144.12 130H1140.67ZM1142.22 125.328H1143.74C1144.67 125.328 1145.13 124.848 1145.13 124.096C1145.13 123.36 1144.67 122.976 1143.69 122.976H1142.22V125.328ZM1142.22 128.912H1143.88C1145 128.912 1145.53 128.4 1145.53 127.648C1145.53 126.848 1144.94 126.368 1143.87 126.368H1142.22V128.912ZM1156.31 130V121.904H1157.86V130H1156.31ZM1148.98 130V121.904H1150.53V124.832H1152.12C1153.8 124.832 1155.06 125.6 1155.06 127.44C1155.06 128.96 1154.13 130 1152.1 130H1148.98ZM1150.53 128.88H1151.89C1153.01 128.88 1153.49 128.272 1153.49 127.424C1153.49 126.56 1153 125.952 1151.88 125.952H1150.53V128.88Z" fill="white"/>
<path d="M1261.49 130V118.704H1263.07V123.456H1264.75L1267.62 118.704H1269.36L1266.06 124.064V124.096L1269.57 130H1267.76L1264.75 124.832H1263.07V130H1261.49ZM1270.08 125.936C1270.08 123.488 1272.03 121.712 1274.43 121.712C1276.85 121.712 1278.8 123.488 1278.8 125.936C1278.8 128.4 1276.85 130.192 1274.45 130.192C1272.03 130.192 1270.08 128.4 1270.08 125.936ZM1271.66 125.936C1271.66 127.632 1272.91 128.848 1274.45 128.848C1275.97 128.848 1277.23 127.632 1277.23 125.936C1277.23 124.256 1275.97 123.056 1274.45 123.056C1272.91 123.056 1271.66 124.256 1271.66 125.936ZM1280.67 130V121.904H1282.22V125.2H1286.32V121.904H1287.87V130H1286.32V126.528H1282.22V130H1280.67ZM1292.21 130V123.232H1289.4V121.904H1296.58V123.232H1293.75V130H1292.21ZM1297.36 127.792C1297.36 125.248 1300.51 124.96 1302.19 124.96H1302.6V124.8C1302.6 123.472 1301.84 123.024 1300.83 123.024C1300.03 123.024 1299.21 123.344 1298.56 123.808L1297.93 122.672C1298.59 122.128 1299.82 121.712 1300.96 121.712C1302.99 121.712 1304.16 122.832 1304.16 124.88V130H1302.7V129.184C1302.7 128.816 1302.75 128.544 1302.75 128.544H1302.72C1302.25 129.472 1301.26 130.192 1300.06 130.192C1298.65 130.192 1297.36 129.312 1297.36 127.792ZM1298.91 127.664C1298.91 128.304 1299.42 128.96 1300.43 128.96C1301.79 128.96 1302.6 127.584 1302.6 126.384V126.08H1302.2C1301.05 126.08 1298.91 126.176 1298.91 127.664ZM1306.45 130V121.904H1308V125.168H1309.14L1311.35 121.904H1313.11L1310.4 125.76V125.792L1313.43 130H1311.59L1309.17 126.496H1308V130H1306.45ZM1316.76 130V123.232H1313.95V121.904H1321.13V123.232H1318.3V130H1316.76ZM1329.98 130V121.904H1331.53V130H1329.98ZM1322.65 130V121.904H1324.21V124.832H1325.79C1327.47 124.832 1328.73 125.6 1328.73 127.44C1328.73 128.96 1327.81 130 1325.77 130H1322.65ZM1324.21 128.88H1325.57C1326.69 128.88 1327.17 128.272 1327.17 127.424C1327.17 126.56 1326.67 125.952 1325.55 125.952H1324.21V128.88Z" fill="white"/>
<defs>
<linearGradient id="paint0_linear_12_4071" x1="184" y1="60.495" x2="336" y2="60.495" gradientUnits="userSpaceOnUse">
<stop stop-color="#004F1E"/>
<stop offset="1" stop-color="#94C679"/>
</linearGradient>
<clipPath id="clip0_12_4071">
<rect width="152" height="73.63" fill="white" transform="translate(184 18)"/>
</clipPath>
<clipPath id="clip1_12_4071">
<rect width="152" height="73.63" fill="white" transform="translate(184 18)"/>
</clipPath>
<clipPath id="clip2_12_4071">
<rect width="152" height="73.63" fill="white" transform="translate(184 18)"/>
</clipPath>
<clipPath id="clip3_12_4071">
<rect width="152" height="73.6362" fill="white" transform="translate(184 17.9968)"/>
</clipPath>
<clipPath id="clip4_12_4071">
<rect width="22" height="22" fill="white" transform="translate(980.82 60.6299)"/>
</clipPath>
<clipPath id="clip5_12_4071">
<rect width="22" height="22" fill="white" transform="translate(980.82 60.6299)"/>
</clipPath>
<clipPath id="clip6_12_4071">
<rect width="22" height="22" fill="white" transform="translate(980.82 60.6299)"/>
</clipPath>
<clipPath id="clip7_12_4071">
<rect width="18" height="18" fill="white" transform="translate(1034.82 62.6299)"/>
</clipPath>
<clipPath id="clip8_12_4071">
<rect width="18" height="18" fill="white" transform="translate(1034.82 62.6299)"/>
</clipPath>
<clipPath id="clip9_12_4071">
<rect width="17.1429" height="18" fill="white" transform="translate(1035.25 62.6299)"/>
</clipPath>
<clipPath id="clip10_12_4071">
<rect width="17" height="15" fill="white" transform="translate(1087.32 64.1299)"/>
</clipPath>
<clipPath id="clip11_12_4071">
<rect width="17" height="15" fill="white" transform="translate(1087.32 64.1299)"/>
</clipPath>
<clipPath id="clip12_12_4071">
<rect width="15.8333" height="15" fill="white" transform="translate(1087.9 64.1299)"/>
</clipPath>
</defs>
</svg>
