<svg width="152" height="74" viewBox="0 0 152 74" fill="none" xmlns="http://www.w3.org/2000/svg">
<g clip-path="url(#clip0_12_3612)">
<path fill-rule="evenodd" clip-rule="evenodd" d="M52.7813 29.8206V22.6619H40.0339V29.8206L42.0254 30.7567L40.2236 37.812C42.24 37.4129 44.3014 37.2307 46.3677 37.3095C46.9666 37.3341 47.4907 37.4376 47.9449 37.6199L49.8465 30.7567L52.7863 29.8206H52.7813ZM38.8111 43.3154L38.3769 45.0201L37.9726 43.611C34.6385 44.8378 31.2595 46.641 28.8688 48.8581L30.6506 55.4059H40.3584L40.7377 54.4649C41.8757 51.6319 43.0636 48.8039 44.1217 45.9414C44.4361 45.0841 45.1399 43.207 45.3944 41.8767C43.5178 42.0048 41.1969 42.5073 38.8161 43.3154H38.8111ZM36.5951 38.7826C33.6503 39.7828 30.8552 41.2411 28.3397 43.0444C28.0452 43.2562 27.7558 43.473 27.4663 43.6947L26.7226 40.9554L25.4598 45.3797C24.5265 46.237 23.653 47.1534 22.8794 48.1191C21.9461 49.2917 20.7332 51.0949 20.6733 52.637C20.6334 53.6174 21.3921 54.6619 22.1307 55.4108H9.47323L3.0746 30.7567L0.18473 29.8206V22.6619H16.1064V29.8206L13.9253 30.7567L17.8134 45.025L21.7464 30.7567L19.5204 29.8206V22.6619H36.625V29.8206L34.3041 30.7567L36.5951 38.7875V38.7826ZM84.2005 49.5577V28.3672L77.2828 22.6619H63.2078L56.2901 28.3672V45.7886C56.3999 45.7246 56.5197 45.6753 56.6395 45.6507C57.6526 45.4487 58.556 46.4193 59.0901 47.1435C59.6042 47.8333 60.4078 49.1044 59.6192 49.8829C59.3546 50.144 58.9953 50.7549 58.6209 51.4743L60.1083 52.6912C60.9218 51.8241 61.7454 50.9717 62.5739 50.1292C63.7868 48.8975 65.0246 47.6756 66.2773 46.4833L66.0427 46.2912V31.6978L67.3205 30.7173H73.1501L74.4278 31.6978V45.2467C74.5227 45.5719 74.5426 45.8921 74.4278 46.1828V46.2961L74.318 46.3848C74.2781 46.439 74.2332 46.4932 74.1833 46.5474C73.9637 46.8036 73.6143 47.5869 73.4696 47.9121C73.0104 48.9123 72.5861 49.942 72.1818 50.9668C71.5979 52.4399 71.0389 53.9279 70.4998 55.4207H71.7426L71.8275 55.2581C73.0952 52.8636 75.6307 49.1882 78.6903 49.0847C80.1876 49.0355 81.5652 49.8188 82.4736 50.9619C83.0475 50.4987 83.6165 50.0356 84.1905 49.5725L84.2005 49.5577ZM63.4723 55.4059C64.4206 54.3171 65.3939 53.2332 66.3772 52.169C65.9479 53.243 65.5287 54.322 65.1144 55.4059H63.4723ZM116.284 49.5577V28.3672L109.366 22.6619H95.2908L88.3731 28.3672V49.5577L89.6758 50.6219C90.8287 49.7597 92.2961 49.0158 93.6138 49.0158C94.7667 49.0158 96.1692 49.4001 96.9828 50.2918C97.2723 49.6168 97.5418 49.001 97.7814 48.4738C95.3257 48.6462 91.2729 49.001 90.4943 49.4937C90.2198 49.7449 89.8455 49.8238 89.4861 49.7006C89.1168 49.5725 88.8672 49.267 88.8223 48.8827C88.6626 47.5081 89.2166 45.9118 90.1998 44.9412C90.8337 44.3155 93.1097 44.3648 93.9582 44.35C95.3457 44.3254 96.7382 44.3303 98.1308 44.35V31.6879L99.4085 30.7075H105.238L106.516 31.6879V42.4137C106.666 42.7044 106.656 43.0394 106.516 43.3104V44.5963C107.744 44.6456 108.971 44.6998 110.204 44.754C111.213 44.8033 112.231 44.8723 113.244 44.9067C113.444 44.9067 113.613 44.9609 113.778 45.0743L113.793 45.0841C114.392 45.3157 114.596 46.0596 114.537 46.6755C114.472 47.3455 114.147 47.9663 113.668 48.4442C113.329 48.7793 112.8 48.8285 112.41 48.5674C111.836 48.3506 109.785 48.2816 109.176 48.257C107.255 48.188 105.308 48.2028 103.381 48.257C102.184 50.5431 101.086 52.977 100.157 55.4158H102.967C104.809 52.0261 107.709 49.0749 111.452 49.0749C112.755 49.0749 113.953 49.5626 114.701 50.6465C114.731 50.686 114.756 50.7303 114.786 50.7746C115.285 50.3706 115.779 49.9716 116.279 49.5676L116.284 49.5577ZM93.5589 53.7998C93.7036 53.6914 93.8533 53.5928 94.0081 53.4943C94.597 53.1149 95.3557 52.7355 96.0844 52.4646C95.755 53.2874 95.4206 54.1594 95.1011 55.0561L93.5639 53.7998H93.5589ZM151.775 48.39V29.4462L143.485 22.6619H120.456V29.8206L124.06 30.7567V47.3652L120.456 48.3014V49.336C121.699 49.4099 122.947 50.1391 123.63 51.154C123.74 51.3166 123.795 51.4989 123.8 51.6812C124.619 50.9028 125.502 50.213 126.46 49.6267C126.665 49.4493 126.915 49.3064 127.164 49.2276C127.174 49.2276 127.184 49.2227 127.194 49.2178C127.334 49.1586 127.474 49.1241 127.638 49.1241C127.938 49.1241 128.212 49.2572 128.392 49.4641C128.831 49.5183 129.27 49.6365 129.655 49.7843C129.954 49.8977 130.269 50.0455 130.533 50.2278C131.132 50.6465 131.422 51.4102 130.838 51.9817C129.834 52.972 129.051 54.1397 128.502 55.4059H143.246L151.775 48.39ZM133.862 30.7075H139.976L141.968 32.353V45.6704L139.882 47.3603H133.862V30.7075Z" fill="url(#paint0_linear_12_3612)"/>
<path fill-rule="evenodd" clip-rule="evenodd" d="M71.2984 43.3299C70.9341 43.3299 56.315 56.731 53.3503 62.998C54.3385 57.9135 57.8224 50.2621 58.9154 49.1831C59.2299 48.8727 57.6127 46.4634 56.8341 46.6162C56.4698 46.6162 44.506 59.7611 40.3434 67.6194C43.7773 55.657 54.1788 38.6051 46.3278 38.2996C32.6471 37.7872 21.8263 48.8283 21.6716 52.6762C21.6217 54.0607 24.7411 56.6325 24.791 55.657C24.791 55.5535 24.5315 55.3466 24.5315 55.2481C24.5315 46.7246 39.5648 40.768 46.4825 40.8714C46.742 44.9263 36.65 63.8258 36.65 71.5807C36.65 72.8124 38.0026 73.581 39.4051 73.6352V73.4824C39.9241 71.0683 48.4041 59.1058 53.7097 52.7353C52.0476 56.5882 50.2258 61.4116 50.2258 64.4958C50.2258 65.7817 51.0594 66.7572 52.412 67.1169H52.4619C52.6715 67.1662 52.931 67.2204 53.1906 67.2204H53.6048C53.6548 67.2204 53.7097 67.0135 53.7097 66.708C54.8526 63.678 64.0613 52.8437 69.2121 47.8627C66.3522 54.7455 61.3561 67.4766 61.3561 71.5363C61.3561 73.177 62.7586 73.9998 64.79 73.9998C63.073 72.3049 71.9672 47.3503 73.4795 45.8623C73.794 45.552 72.1269 43.0885 71.3483 43.2954L71.2984 43.3447V43.3299ZM127.638 50.1586V50.1093C127.588 50.1093 127.534 50.1586 127.484 50.1586C127.329 50.2079 127.169 50.3113 127.069 50.4148C122.962 52.8782 119.997 57.6573 117.446 63.8159C117.601 62.7369 117.861 61.6579 118.175 60.5789C118.799 58.5244 119.682 56.5734 120.671 54.6716C120.825 54.4154 122.542 51.5923 122.802 51.6908C122.802 51.6908 121.864 50.3064 120.251 50.3064H120.097C119.887 50.4099 119.732 50.5626 119.578 50.7153C119.318 50.9715 119.108 51.2819 118.899 51.5874C118.639 51.9963 118.38 52.4102 118.12 52.8191C117.861 53.2822 117.601 53.7454 117.342 54.2578C117.082 54.8243 116.823 55.386 116.563 55.9526C116.303 56.5685 116.044 57.1843 115.784 57.8002C115.545 58.3717 115.3 58.9432 115.101 59.5147C113.518 61.7466 109.905 66.2104 106.211 66.4764C102.049 63.5991 107.409 53.228 111.881 53.228H112.351C111.312 55.588 107.719 60.4705 105.328 60.2636C105.328 60.2636 106.526 62.3181 108.348 61.4953C112.041 59.904 114.018 54.2528 114.332 53.228V53.0211C114.542 52.0948 113.918 50.0403 111.472 50.0403C106.421 50.0403 102.927 56.4157 101.974 60.9287C100.566 62.9241 98.5899 65.3679 97.1176 65.7571C96.1293 62.0619 99.8228 52.8191 102.787 47.2714C107.784 47.1187 112.41 47.2714 112.984 47.7346C113.763 46.966 113.608 45.9904 113.399 45.9904L113.244 45.887C113.139 45.887 108.612 45.6308 103.671 45.4781C104.504 44.0936 105.233 43.1181 105.647 42.857C105.647 42.857 104.869 41.4183 103.047 41.4183C102.633 41.4183 101.59 43.0097 100.342 45.3746C95.6102 45.2711 91.2929 45.2711 90.9285 45.6308C89.6259 46.9167 89.8355 48.7643 89.8355 48.7643C90.5093 48.0942 94.7268 47.636 99.4085 47.3798C95.6651 55.184 91.1382 68.0727 95.5054 68.8955C97.3272 69.2552 99.9775 65.7127 101.175 64.0672C101.365 63.811 101.545 63.5597 101.719 63.3134C101.744 66.2301 103.117 68.792 106.171 68.792C108.872 68.792 111.961 65.7078 114.192 62.7566C114.152 62.9537 114.112 63.1508 114.077 63.3478C113.973 63.9144 113.923 64.4761 113.868 65.0427C113.868 65.5551 113.868 66.0182 113.918 66.5306C114.023 67.0972 114.177 67.7131 114.492 68.2255C114.646 68.4817 114.856 68.6886 115.116 68.8413C115.53 69.0975 115.999 69.0975 116.468 69.0975C116.678 69.0975 117.042 69.0482 117.352 69.0482L117.456 68.7379C119.797 60.8795 122.762 55.9526 125.417 54.307C125.053 55.4895 124.743 56.7212 124.743 57.6967C124.743 59.495 126.356 59.697 126.565 59.697C126.67 56.1546 128.177 53.228 130.154 51.277C130.363 51.0701 128.592 50.198 127.499 50.4542L127.653 50.1438L127.638 50.1586ZM78.7402 60.2242C77.4375 62.5349 74.7323 66.7967 73.6443 65.4122C71.7177 62.998 76.9733 52.1146 80.0429 52.1146C80.8215 52.1146 81.6051 52.6812 82.0693 53.0901C80.9762 54.8342 79.6785 57.5588 78.7901 60.2291H78.7402V60.2242ZM87.2002 59.3423C86.9955 58.7314 86.8558 58.1598 86.8558 57.7066C86.8558 53.1344 91.4327 50.0059 93.6188 50.0059C95.8049 50.0059 96.4787 51.2918 96.4787 51.2918H96.5286C96.5286 51.2918 90.4943 52.8832 90.4943 57.3518C90.4943 62.3329 95.8548 67.7229 87.7392 68.8561C85.7378 69.1419 84.5798 67.9249 84.0607 66.5848C82.9827 67.7722 81.8048 68.595 80.6119 68.595C78.271 68.595 77.5972 66.7474 77.8019 64.284C76.7637 66.3385 75.0967 68.7526 73.1202 68.8019C72.9106 68.8019 70.9341 69.1123 70.415 65.2053C69.6863 59.9138 74.5227 50.2128 78.7402 50.0551C80.5071 50.0059 81.9146 51.4396 82.3837 52.7748C83.0625 51.7992 83.6315 51.1834 83.946 51.1834C85.5581 51.1834 86.4964 52.5678 86.4964 52.5678C84.47 53.8537 79.2643 66.5355 81.7099 66.5355C82.1791 66.5355 82.9278 65.7719 83.7413 64.7077C83.7862 63.2 84.3652 63.2493 84.3652 63.2493C84.3652 63.2493 84.3802 63.4464 84.4451 63.7469C85.4882 62.2541 86.5413 60.4903 87.2102 59.3423H87.2002ZM85.0739 65.3284C85.4682 65.9098 86.0772 66.3877 87.0105 66.3877C88.6227 66.3877 88.7275 64.7421 88.7275 63.6681C88.7275 63.1064 88.2234 61.9683 87.7392 60.7711C87.0654 62.1605 86.1421 63.8652 85.0739 65.3284Z" fill="black"/>
<path fill-rule="evenodd" clip-rule="evenodd" d="M1.56722 11.0047C2.10626 11.0047 2.50555 11.1623 2.7601 11.4777C3.01465 11.793 3.14441 12.2118 3.14441 12.7389V13.3597H2.40573V12.6995C2.40573 12.3842 2.34084 12.1379 2.21107 11.9654C2.0813 11.793 1.87168 11.7043 1.58718 11.7043C1.30269 11.7043 1.10304 11.793 0.96828 11.9654C0.833519 12.1379 0.768635 12.3842 0.768635 12.6995V16.3454C0.768635 16.6607 0.833519 16.9071 0.96828 17.0795C1.10304 17.252 1.30768 17.3406 1.58718 17.3406C1.86668 17.3406 2.0813 17.252 2.21107 17.0795C2.34084 16.9071 2.40573 16.6607 2.40573 16.3454V15.4487H3.14441V16.306C3.14441 16.8332 3.01465 17.252 2.7601 17.5673C2.50555 17.8826 2.10626 18.0403 1.56722 18.0403C1.02817 18.0403 0.638865 17.8826 0.384317 17.5673C0.129769 17.252 0 16.8332 0 16.306V12.7389C0 12.4778 0.0299468 12.2364 0.0948315 12.0245C0.159716 11.8127 0.254548 11.6304 0.384317 11.4777C0.514087 11.3249 0.678794 11.2116 0.873448 11.1279C1.0681 11.0441 1.30269 11.0047 1.56722 11.0047ZM4.92126 17.9664V11.7683H3.63355V11.0687H6.98759V11.7683H5.69988V17.9664H4.92126ZM9.09385 11.0687C9.64786 11.0687 10.0472 11.2165 10.2917 11.5171C10.5363 11.8176 10.6611 12.2265 10.6611 12.7537V13.5814C10.6611 14.1332 10.5313 14.5471 10.2668 14.8279C10.0022 15.1088 9.59296 15.2467 9.03395 15.2467H8.34518V17.9664H7.56656V11.0687H9.09385ZM9.03395 14.557C9.32843 14.557 9.54305 14.488 9.6828 14.3451C9.82255 14.2022 9.89243 13.9657 9.89243 13.6307V12.7143C9.89243 12.399 9.83253 12.1625 9.70776 12.0048C9.58298 11.8472 9.37834 11.7683 9.09385 11.7683H8.34518V14.557H9.03395ZM11.2101 12.734C11.2101 12.2019 11.3399 11.7782 11.6044 11.4678C11.8689 11.1574 12.2682 10.9998 12.8073 10.9998C13.3463 10.9998 13.7506 11.1574 14.0151 11.4678C14.2796 11.7782 14.4144 12.2019 14.4144 12.734V16.3011C14.4144 16.8283 14.2796 17.247 14.0151 17.5624C13.7506 17.8777 13.3463 18.0353 12.8073 18.0353C12.2682 18.0353 11.8689 17.8777 11.6044 17.5624C11.3399 17.247 11.2101 16.8283 11.2101 16.3011V12.734ZM11.9787 16.3405C11.9787 16.6558 12.0486 16.9021 12.1834 17.0746C12.3181 17.247 12.5277 17.3357 12.8073 17.3357C13.0868 17.3357 13.3014 17.247 13.4361 17.0746C13.5709 16.9021 13.6358 16.6558 13.6358 16.3405V12.6946C13.6358 12.3793 13.5709 12.1329 13.4361 11.9605C13.3014 11.7881 13.0917 11.6994 12.8073 11.6994C12.5228 11.6994 12.3181 11.7881 12.1834 11.9605C12.0486 12.1329 11.9787 12.3793 11.9787 12.6946V16.3405ZM16.9898 14.7836L15.9616 17.9664H15.1531V11.0687H15.8419V16.2124L16.4608 14.3106L17.5788 11.0687H18.4472V17.9664H17.7485V12.4778L16.9898 14.7836ZM21.8113 17.9565H21.0626L19.9046 12.468V17.9664H19.2258V11.0687H20.3139L21.4619 16.577L22.5699 11.0687H23.658V17.9664H22.9193V12.4187L21.8113 17.9565ZM30.99 18.9123V17.9664H28.135V18.9123H27.3864V17.2864H27.8356C27.9553 17.1534 28.0352 17.0056 28.0701 16.843C28.1051 16.6804 28.13 16.4932 28.145 16.2814L28.4145 11.0687H31.2195V17.2864H31.7486V18.9123H30.99ZM28.9037 16.2715C28.8887 16.5228 28.8637 16.7248 28.8188 16.8824C28.7739 17.0401 28.699 17.1731 28.5842 17.2864H30.4309V11.7683H29.1332L28.9037 16.2715ZM32.3675 12.734C32.3675 12.2019 32.4973 11.7782 32.7618 11.4678C33.0263 11.1574 33.4256 10.9998 33.9647 10.9998C34.5037 10.9998 34.908 11.1574 35.1725 11.4678C35.4371 11.7782 35.5718 12.2019 35.5718 12.734V16.3011C35.5718 16.8283 35.4371 17.247 35.1725 17.5624C34.908 17.8777 34.5037 18.0353 33.9647 18.0353C33.4256 18.0353 33.0263 17.8777 32.7618 17.5624C32.4973 17.247 32.3675 16.8283 32.3675 16.3011V12.734ZM33.1361 16.3405C33.1361 16.6558 33.206 16.9021 33.3408 17.0746C33.4755 17.247 33.6852 17.3357 33.9647 17.3357C34.2442 17.3357 34.4588 17.247 34.5935 17.0746C34.7283 16.9021 34.7932 16.6558 34.7932 16.3405V12.6946C34.7932 12.3793 34.7283 12.1329 34.5935 11.9605C34.4588 11.7881 34.2492 11.6994 33.9647 11.6994C33.6802 11.6994 33.4755 11.7881 33.3408 11.9605C33.206 12.1329 33.1361 12.3793 33.1361 12.6946V16.3405ZM38.8859 17.9565H38.1373L36.9793 12.468V17.9664H36.3005V11.0687H37.3886L38.5365 16.577L39.6446 11.0687H40.7326V17.9664H39.994V12.4187L38.8859 17.9565ZM42.3198 16.577L42.0503 17.9664H41.3316L42.6692 11.0687H43.7972L45.1348 17.9664H44.3562L44.0867 16.577H42.3198ZM42.4196 15.9168H43.9769L43.1883 11.9359L42.4196 15.9168ZM46.0831 17.9664H45.7937V17.0105H46.5423V17.8974L46.153 18.8335H45.8336L46.0831 17.9664ZM52.0026 11.0687C52.5467 11.0687 52.936 11.1968 53.1706 11.4481C53.4051 11.6994 53.5199 12.0837 53.5199 12.5961V12.9212C53.5199 13.2908 53.46 13.5864 53.3403 13.813C53.2205 14.0396 53.0058 14.1973 52.7014 14.2909C53.0408 14.3845 53.2804 14.557 53.4251 14.8132C53.5698 15.0694 53.6397 15.3896 53.6397 15.769V16.3503C53.6397 16.8677 53.5099 17.2667 53.2504 17.5476C52.9909 17.8284 52.5866 17.9664 52.0426 17.9664H50.4354V11.0687H52.0026ZM51.813 13.9953C52.1274 13.9953 52.362 13.9312 52.5167 13.8081C52.6714 13.6849 52.7513 13.4386 52.7513 13.0789V12.6749C52.7513 12.3645 52.6914 12.1379 52.5766 11.9901C52.4618 11.8422 52.2622 11.7683 51.9827 11.7683H51.214V13.9953H51.813ZM52.0426 17.2667C52.5966 17.2667 52.8711 16.9563 52.8711 16.3306V15.7197C52.8711 15.3305 52.7912 15.0644 52.6365 14.9166C52.4818 14.7688 52.2322 14.6949 51.8928 14.6949H51.214V17.2667H52.0426ZM58.6309 14.9708L58.2216 15.6507V17.9664H57.443V11.0687H58.2216V14.3993L60.0783 11.0687H60.8669L59.1 14.2121L60.9268 17.9664H60.1282L58.6309 14.9708ZM61.4658 12.734C61.4658 12.2019 61.5956 11.7782 61.8601 11.4678C62.1246 11.1574 62.5239 10.9998 63.063 10.9998C63.602 10.9998 64.0063 11.1574 64.2708 11.4678C64.5354 11.7782 64.6701 12.2019 64.6701 12.734V16.3011C64.6701 16.8283 64.5354 17.247 64.2708 17.5624C64.0063 17.8777 63.602 18.0353 63.063 18.0353C62.5239 18.0353 62.1246 17.8777 61.8601 17.5624C61.5956 17.247 61.4658 16.8283 61.4658 16.3011V12.734ZM62.2345 16.3405C62.2345 16.6558 62.3043 16.9021 62.4391 17.0746C62.5738 17.247 62.7835 17.3357 63.063 17.3357C63.3425 17.3357 63.5571 17.247 63.6919 17.0746C63.8266 16.9021 63.8915 16.6558 63.8915 16.3405V12.6946C63.8915 12.3793 63.8266 12.1329 63.6919 11.9605C63.5571 11.7881 63.3475 11.6994 63.063 11.6994C62.7785 11.6994 62.5738 11.7881 62.4391 11.9605C62.3043 12.1329 62.2345 12.3793 62.2345 12.6946V16.3405ZM66.4769 17.9664V11.7683H65.1892V11.0687H68.5432V11.7683H67.2555V17.9664H66.4769ZM69.0623 12.734C69.0623 12.2019 69.1921 11.7782 69.4566 11.4678C69.7212 11.1574 70.1204 10.9998 70.6595 10.9998C71.1985 10.9998 71.6028 11.1574 71.8673 11.4678C72.1319 11.7782 72.2666 12.2019 72.2666 12.734V16.3011C72.2666 16.8283 72.1319 17.247 71.8673 17.5624C71.6028 17.8777 71.1985 18.0353 70.6595 18.0353C70.1204 18.0353 69.7212 17.8777 69.4566 17.5624C69.1921 17.247 69.0623 16.8283 69.0623 16.3011V12.734ZM69.831 16.3405C69.831 16.6558 69.9008 16.9021 70.0356 17.0746C70.1704 17.247 70.38 17.3357 70.6595 17.3357C70.939 17.3357 71.1536 17.247 71.2884 17.0746C71.4231 16.9021 71.488 16.6558 71.488 16.3405V12.6946C71.488 12.3793 71.4231 12.1329 71.2884 11.9605C71.1536 11.7881 70.944 11.6994 70.6595 11.6994C70.375 11.6994 70.1704 11.7881 70.0356 11.9605C69.9008 12.1329 69.831 12.3793 69.831 12.6946V16.3405ZM74.5326 11.0687C75.0866 11.0687 75.4859 11.2165 75.7305 11.5171C75.975 11.8176 76.0998 12.2265 76.0998 12.7537V13.5814C76.0998 14.1332 75.97 14.5471 75.7055 14.8279C75.441 15.1088 75.0317 15.2467 74.4727 15.2467H73.7839V17.9664H73.0053V11.0687H74.5326ZM74.4727 14.557C74.7672 14.557 74.9818 14.488 75.1216 14.3451C75.2613 14.2022 75.3312 13.9657 75.3312 13.6307V12.7143C75.3312 12.399 75.2713 12.1625 75.1465 12.0048C75.0217 11.8472 74.8171 11.7683 74.5326 11.7683H73.7839V14.557H74.4727ZM78.1761 13.7884C78.7351 13.7884 79.1444 13.9263 79.4089 14.2072C79.6735 14.488 79.8032 14.9018 79.8032 15.4537V16.2814C79.8032 16.8085 79.6785 17.2175 79.4289 17.518C79.1794 17.8186 78.7801 17.9664 78.236 17.9664H76.7087V11.0687H77.4874V13.7884H78.1761ZM81.2207 11.0687V17.9664H80.4521V11.0687H81.2207ZM78.236 17.2667C78.5205 17.2667 78.7252 17.1879 78.8499 17.0303C78.9747 16.8726 79.0346 16.6361 79.0346 16.3208V15.4044C79.0346 15.0694 78.9647 14.8329 78.825 14.69C78.6852 14.5471 78.4706 14.4781 78.1761 14.4781H77.4874V17.2667H78.236ZM83.7562 14.9905L82.5883 17.9664H81.8496L83.2571 14.4092L81.9394 11.0687H82.748L83.8261 13.8278L84.9142 11.0687H85.6429L84.3352 14.4092L85.7327 17.9664H84.9142L83.7562 14.9905ZM90.9634 10.9998C91.5025 10.9998 91.9017 11.1574 92.1563 11.4727C92.4109 11.7881 92.5406 12.2068 92.5406 12.734V13.3548H91.8019V12.6946C91.8019 12.3793 91.737 12.1329 91.6073 11.9605C91.4775 11.7881 91.2679 11.6994 90.9834 11.6994C90.6989 11.6994 90.4992 11.7881 90.3645 11.9605C90.2297 12.1329 90.1648 12.3793 90.1648 12.6946V16.3405C90.1648 16.6558 90.2297 16.9021 90.3645 17.0746C90.4992 17.247 90.7039 17.3357 90.9834 17.3357C91.2629 17.3357 91.4775 17.247 91.6073 17.0746C91.737 16.9021 91.8019 16.6558 91.8019 16.3405V15.4438H92.5406V16.3011C92.5406 16.8283 92.4109 17.247 92.1563 17.5624C91.9017 17.8777 91.5025 18.0353 90.9634 18.0353C90.4244 18.0353 90.0351 17.8777 89.7805 17.5624C89.526 17.247 89.3962 16.8283 89.3962 16.3011V12.734C89.3962 12.4729 89.4262 12.2315 89.491 12.0196C89.5559 11.8078 89.6508 11.6255 89.7805 11.4727C89.9103 11.32 90.075 11.2067 90.2697 11.1229C90.4643 11.0392 90.6989 10.9998 90.9634 10.9998ZM94.8465 13.9165C95.3906 13.9165 95.8048 14.0446 96.0793 14.3057C96.3538 14.5668 96.4936 14.9757 96.4936 15.5325V16.2912C96.4936 16.8282 96.3638 17.2421 96.1043 17.5328C95.8447 17.8235 95.4405 17.9664 94.8865 17.9664H93.2593V11.0687H96.2041V11.7683H94.028V13.9165H94.8465ZM94.8865 17.2667C95.1709 17.2667 95.3806 17.1928 95.5153 17.045C95.6501 16.8972 95.715 16.6607 95.715 16.3405V15.4832C95.715 15.1482 95.6401 14.9166 95.4954 14.7935C95.3506 14.6703 95.131 14.6062 94.8465 14.6062H94.028V17.2667H94.8865ZM98.7196 13.7884C99.2786 13.7884 99.6879 13.9263 99.9524 14.2072C100.217 14.488 100.347 14.9018 100.347 15.4537V16.2814C100.347 16.8085 100.222 17.2175 99.9724 17.518C99.7229 17.8186 99.3236 17.9664 98.7795 17.9664H97.2523V11.0687H98.0309V13.7884H98.7196ZM101.764 11.0687V17.9664H100.996V11.0687H101.764ZM98.7795 17.2667C99.064 17.2667 99.2687 17.1879 99.3934 17.0303C99.5182 16.8726 99.5781 16.6361 99.5781 16.3208V15.4044C99.5781 15.0694 99.5082 14.8329 99.3685 14.69C99.2287 14.5471 99.0141 14.4781 98.7196 14.4781H98.0309V17.2667H98.7795ZM104.13 11.0687C104.674 11.0687 105.063 11.1968 105.298 11.4481C105.533 11.6994 105.647 12.0837 105.647 12.5961V12.9212C105.647 13.2908 105.587 13.5864 105.468 13.813C105.348 14.0396 105.133 14.1973 104.829 14.2909C105.168 14.3845 105.408 14.557 105.553 14.8132C105.697 15.0694 105.767 15.3896 105.767 15.769V16.3503C105.767 16.8677 105.637 17.2667 105.378 17.5476C105.118 17.8284 104.714 17.9664 104.17 17.9664H102.563V11.0687H104.13ZM103.94 13.9953C104.255 13.9953 104.489 13.9312 104.644 13.8081C104.799 13.6849 104.879 13.4386 104.879 13.0789V12.6749C104.879 12.3645 104.819 12.1379 104.704 11.9901C104.589 11.8422 104.39 11.7683 104.11 11.7683H103.341V13.9953H103.94ZM104.17 17.2667C104.724 17.2667 104.998 16.9563 104.998 16.3306V15.7197C104.998 15.3305 104.919 15.0644 104.764 14.9166C104.609 14.7688 104.36 14.6949 104.02 14.6949H103.341V17.2667H104.17ZM107.264 16.577L106.995 17.9664H106.276L107.614 11.0687H108.742L110.079 17.9664H109.301L109.031 16.577H107.264ZM107.364 15.9168H108.922L108.133 11.9359L107.364 15.9168ZM114.082 10.9998C114.621 10.9998 115.021 11.1574 115.285 11.4678C115.55 11.7782 115.68 12.2019 115.68 12.734V16.3011C115.68 16.8283 115.55 17.247 115.285 17.5624C115.021 17.8777 114.621 18.0353 114.082 18.0353C113.543 18.0353 113.139 17.8777 112.874 17.5624C112.61 17.247 112.475 16.8283 112.475 16.3011V14.8624H111.467V17.9664H110.688V11.0687H111.467V14.1727H112.475V12.734C112.475 12.2019 112.61 11.7782 112.874 11.4678C113.139 11.1574 113.543 10.9998 114.082 10.9998ZM114.082 11.6994C113.798 11.6994 113.588 11.7881 113.453 11.9605C113.319 12.1329 113.254 12.3793 113.254 12.6946V16.3405C113.254 16.6558 113.319 16.9021 113.453 17.0746C113.588 17.247 113.798 17.3357 114.082 17.3357C114.367 17.3357 114.571 17.247 114.706 17.0746C114.841 16.9021 114.911 16.6558 114.911 16.3405V12.6946C114.911 12.3793 114.841 12.1329 114.706 11.9605C114.571 11.7881 114.362 11.6994 114.082 11.6994ZM117.496 17.9664V11.7683H116.209V11.0687H119.563V11.7683H118.275V17.9664H117.496ZM121.649 11.0047C122.188 11.0047 122.587 11.1623 122.842 11.4777C123.096 11.793 123.226 12.2118 123.226 12.7389V13.3597H122.487V12.6995C122.487 12.3842 122.423 12.1379 122.293 11.9654C122.163 11.793 121.953 11.7043 121.669 11.7043C121.384 11.7043 121.185 11.793 121.05 11.9654C120.915 12.1379 120.85 12.3842 120.85 12.6995V16.3454C120.85 16.6607 120.915 16.9071 121.05 17.0795C121.185 17.252 121.389 17.3406 121.669 17.3406C121.948 17.3406 122.163 17.252 122.293 17.0795C122.423 16.9071 122.487 16.6607 122.487 16.3454V15.4487H123.226V16.306C123.226 16.8332 123.096 17.252 122.842 17.5673C122.587 17.8826 122.188 18.0403 121.649 18.0403C121.11 18.0403 120.721 17.8826 120.466 17.5673C120.211 17.252 120.082 16.8332 120.082 16.306V12.7389C120.082 12.4778 120.112 12.2364 120.177 12.0245C120.241 11.8127 120.336 11.6304 120.466 11.4777C120.596 11.3249 120.76 11.2116 120.955 11.1279C121.15 11.0441 121.384 11.0047 121.649 11.0047ZM125.742 15.025C125.417 15.025 125.163 15.0989 124.988 15.2467C124.813 15.3945 124.723 15.6606 124.723 16.0498V17.1337C124.723 17.3653 124.713 17.5377 124.694 17.651C124.674 17.7644 124.639 17.8727 124.594 17.9713H123.805C123.865 17.853 123.905 17.7249 123.92 17.5821C123.935 17.4392 123.945 17.2963 123.945 17.1436V16.0695C123.945 15.6951 124.01 15.3847 124.139 15.1383C124.269 14.892 124.494 14.7245 124.813 14.6309C124.239 14.4486 123.955 13.9756 123.955 13.2119V12.6503C123.955 12.1379 124.075 11.7486 124.319 11.4777C124.564 11.2067 124.958 11.0737 125.512 11.0737H127.069V17.9713H126.291V15.025H125.742ZM125.532 11.7733C125.238 11.7733 125.033 11.8521 124.908 12.0098C124.783 12.1674 124.723 12.4039 124.723 12.7192V13.3794C124.723 13.7539 124.808 14.0051 124.983 14.1332C125.158 14.2613 125.397 14.3254 125.702 14.3254H126.291V11.7733H125.532ZM133.533 17.9614H132.784L131.626 12.4729V17.9713H130.947V11.0737H132.035L133.183 16.5819L134.291 11.0737H135.38V17.9713H134.641V12.4236L133.533 17.9614ZM138.664 14.1283V14.8181H136.957V17.2717H139.053V17.9713H136.178V11.0737H139.053V11.7733H136.957V14.1283H138.664ZM142.197 14.9166C142.073 15.094 141.913 15.227 141.718 15.3206C141.524 15.4142 141.324 15.4586 141.109 15.4586C140.875 15.4586 140.67 15.4192 140.495 15.3354C140.321 15.2516 140.176 15.1383 140.061 14.9905C139.946 14.8427 139.862 14.6703 139.807 14.4683C139.752 14.2663 139.722 14.0544 139.722 13.8229V11.0737H140.5V13.7637C140.5 14.0593 140.575 14.3008 140.72 14.4831C140.865 14.6653 141.079 14.759 141.359 14.759C141.838 14.759 142.118 14.488 142.197 13.951V11.0737H142.966V17.9713H142.197V14.9166ZM144.843 17.9713V11.7733H143.555V11.0737H146.909V11.7733H145.621V17.9713H144.843ZM148.955 13.7933C149.514 13.7933 149.924 13.9312 150.188 14.2121C150.453 14.4929 150.583 14.9068 150.583 15.4586V16.2863C150.583 16.8135 150.458 17.2224 150.208 17.5229C149.959 17.8235 149.559 17.9713 149.015 17.9713H147.488V11.0737H148.267V13.7933H148.955ZM152 11.0737V17.9713H151.231V11.0737H152ZM149.015 17.2717C149.3 17.2717 149.504 17.1928 149.629 17.0352C149.754 16.8775 149.814 16.641 149.814 16.3257V15.4093C149.814 15.0743 149.744 14.8378 149.604 14.6949C149.464 14.552 149.25 14.4831 148.955 14.4831H148.267V17.2717H149.015Z" fill="black"/>
</g>
<defs>
<linearGradient id="paint0_linear_12_3612" x1="0" y1="42.495" x2="152" y2="42.495" gradientUnits="userSpaceOnUse">
<stop stop-color="#004F1E"/>
<stop offset="1" stop-color="#94C679"/>
</linearGradient>
<clipPath id="clip0_12_3612">
<rect width="152" height="73.6362" fill="white" transform="translate(0 -0.00317383)"/>
</clipPath>
</defs>
</svg>
